<svg width="82" height="73" viewBox="0 0 82 73" fill="none" xmlns="http://www.w3.org/2000/svg">
<g clip-path="url(#clip0_5_2269)">
<path d="M77.0054 44.939C77.0054 60.4364 64.5944 73 49.2844 73C33.9743 73 21.5633 60.4368 21.5633 44.939C21.5633 42.9135 21.7749 40.9381 22.1778 39.0347C31.4628 37.9766 38.679 30.0013 38.679 20.3194C38.679 19.8837 38.6641 19.4513 38.6353 19.023C41.9138 17.6409 45.5111 16.8781 49.2835 16.8781C64.5944 16.8785 77.0054 29.4417 77.0054 44.939Z" fill="#C7DBFF"/>
<path d="M49.7327 71.442C49.5981 71.442 49.4874 71.3326 49.4852 71.1955C49.4829 71.057 49.5918 70.943 49.7287 70.9408C50.1744 70.933 50.6245 70.9139 51.0675 70.8829C51.2039 70.8738 51.3223 70.9777 51.3313 71.1157C51.3407 71.2538 51.2376 71.3737 51.1012 71.3828C50.6497 71.4142 50.1906 71.4338 49.7368 71.4416C49.7354 71.442 49.7341 71.442 49.7327 71.442ZM48.38 71.4302C48.3773 71.4302 48.3742 71.4302 48.3715 71.4302C47.9181 71.4142 47.4594 71.3864 47.0084 71.3472C46.872 71.3354 46.7711 71.2142 46.7828 71.0761C46.7945 70.938 46.9147 70.8359 47.0507 70.8478C47.4932 70.8865 47.9433 70.9139 48.3881 70.9294C48.525 70.9339 48.6316 71.0501 48.6271 71.1886C48.6226 71.3235 48.5128 71.4302 48.38 71.4302ZM52.431 71.2547C52.3077 71.2547 52.2005 71.1613 52.1857 71.0342C52.1695 70.8966 52.2658 70.7717 52.4018 70.7553C52.8434 70.7011 53.2895 70.6345 53.727 70.5575C53.8616 70.5338 53.9899 70.625 54.0134 70.7612C54.0368 70.8975 53.9467 71.0273 53.8121 71.051C53.366 71.1299 52.9114 71.1978 52.4612 71.2529C52.4508 71.2543 52.4409 71.2547 52.431 71.2547ZM45.6858 71.1955C45.6745 71.1955 45.6628 71.1946 45.6516 71.1932C45.2028 71.1303 44.7494 71.0542 44.3042 70.9672C44.1701 70.9412 44.0818 70.8095 44.108 70.6737C44.1341 70.5379 44.2633 70.4486 44.3979 70.475C44.8345 70.5603 45.2793 70.6345 45.7195 70.6965C45.855 70.7156 45.9496 70.8423 45.9307 70.979C45.9136 71.1043 45.8073 71.1955 45.6858 71.1955ZM55.0955 70.7845C54.9826 70.7845 54.8808 70.7056 54.8543 70.5899C54.8236 70.455 54.9069 70.3206 55.0402 70.2896C55.4737 70.1893 55.9103 70.0759 56.338 69.9524C56.4694 69.9146 56.6063 69.9916 56.6441 70.1246C56.6815 70.2577 56.6054 70.3962 56.4739 70.4345C56.0382 70.5603 55.593 70.676 55.1509 70.7781C55.1325 70.7826 55.1136 70.7845 55.0955 70.7845ZM43.0298 70.6774C43.01 70.6774 42.9902 70.6751 42.9699 70.6701C42.5297 70.5598 42.0867 70.4363 41.6532 70.3028C41.5222 70.2627 41.4484 70.1223 41.4885 69.9902C41.5281 69.8576 41.6667 69.7829 41.7973 69.8234C42.2227 69.9542 42.6571 70.0754 43.0888 70.1839C43.2216 70.2171 43.3026 70.3529 43.2697 70.4873C43.2418 70.6013 43.141 70.6774 43.0298 70.6774ZM57.6966 70.0344C57.5935 70.0344 57.4976 69.9688 57.4625 69.8649C57.4184 69.7341 57.4873 69.5915 57.6165 69.5464C58.0374 69.4005 58.4596 69.2411 58.872 69.0734C58.9989 69.0219 59.143 69.0838 59.1943 69.2123C59.2451 69.3409 59.1839 69.4867 59.057 69.5386C58.6365 69.71 58.2057 69.8722 57.7767 70.0212C57.7506 70.0298 57.7236 70.0344 57.6966 70.0344ZM40.4387 69.8795C40.4108 69.8795 40.3819 69.8745 40.354 69.8644C39.9268 69.7077 39.4983 69.5373 39.0801 69.3577C38.954 69.3039 38.8955 69.1568 38.9486 69.0292C39.0017 68.9016 39.1472 68.8423 39.2732 68.8961C39.6833 69.072 40.1037 69.2392 40.5229 69.3928C40.6516 69.4402 40.7178 69.5837 40.671 69.7141C40.6349 69.8161 40.54 69.8795 40.4387 69.8795ZM60.2036 69.0132C60.1104 69.0132 60.0208 68.9594 59.9789 68.8683C59.9213 68.743 59.9753 68.5935 60.0991 68.5352C60.5016 68.3456 60.9049 68.1429 61.297 67.9328C61.4181 67.8681 61.5675 67.9146 61.6319 68.0367C61.6958 68.1588 61.6499 68.3106 61.5293 68.3757C61.1295 68.5903 60.7185 68.7968 60.308 68.99C60.2742 69.0059 60.2387 69.0132 60.2036 69.0132ZM37.9434 68.81C37.907 68.81 37.87 68.8018 37.8354 68.7845C37.4275 68.5835 37.0192 68.3684 36.6217 68.146C36.502 68.0791 36.4588 67.9264 36.5249 67.8052C36.5911 67.684 36.7419 67.6402 36.8617 67.7072C37.2515 67.9255 37.6522 68.1365 38.0524 68.3338C38.1752 68.3944 38.2266 68.5443 38.1667 68.6687C38.1235 68.758 38.0352 68.81 37.9434 68.81ZM62.5903 67.7332C62.5061 67.7332 62.4242 67.6899 62.3778 67.6111C62.3076 67.4921 62.3459 67.3386 62.4629 67.2675C62.8438 67.0365 63.2241 66.7922 63.5933 66.5411C63.7067 66.4641 63.8607 66.4947 63.9368 66.6095C64.0128 66.7243 63.9827 66.8802 63.8692 66.9572C63.4929 67.2128 63.1053 67.4621 62.7173 67.6972C62.6776 67.7214 62.6335 67.7332 62.5903 67.7332ZM35.5738 67.4826C35.5292 67.4826 35.4837 67.4703 35.4428 67.4448C35.0579 67.2019 34.6743 66.9453 34.302 66.6819C34.1899 66.6026 34.1625 66.4464 34.2408 66.3329C34.3191 66.2194 34.4736 66.1916 34.5856 66.2709C34.9507 66.5293 35.3271 66.7808 35.7048 67.0191C35.8209 67.0925 35.856 67.247 35.7835 67.3646C35.7372 67.4406 35.6566 67.4826 35.5738 67.4826ZM64.8335 66.2076C64.7583 66.2076 64.684 66.1729 64.6354 66.1073C64.5535 65.9966 64.5755 65.8394 64.6849 65.7564C65.0401 65.4867 65.3935 65.2037 65.7352 64.9153C65.84 64.8264 65.9963 64.841 66.084 64.9472C66.1718 65.0533 66.1574 65.2115 66.0525 65.3003C65.7046 65.5942 65.3444 65.8827 64.982 66.1579C64.9375 66.1912 64.8853 66.2076 64.8335 66.2076ZM33.3553 65.9127C33.3022 65.9127 33.2487 65.8954 33.2032 65.8599C32.8453 65.5778 32.4901 65.2821 32.1476 64.9818C32.044 64.8911 32.0332 64.733 32.1223 64.6282C32.2119 64.5234 32.3681 64.5124 32.4717 64.6027C32.8079 64.8975 33.1564 65.1873 33.5075 65.4644C33.6155 65.5496 33.6349 65.7068 33.5507 65.8161C33.5016 65.8795 33.4287 65.9127 33.3553 65.9127ZM66.9096 64.4536C66.843 64.4536 66.7768 64.4268 66.7278 64.3735C66.635 64.2718 66.6409 64.1133 66.7413 64.0194C67.0676 63.7136 67.39 63.3946 67.7001 63.072C67.7956 62.9727 67.9522 62.9704 68.0504 63.067C68.1485 63.1636 68.1507 63.3222 68.0553 63.4215C67.7393 63.7505 67.4102 64.0754 67.078 64.3871C67.0298 64.4318 66.9695 64.4536 66.9096 64.4536ZM31.3103 64.1196C31.2486 64.1196 31.1869 64.0964 31.1387 64.0495C30.8119 63.7314 30.4892 63.4006 30.179 63.0656C30.0854 62.9645 30.0903 62.8059 30.1902 62.7116C30.2902 62.6168 30.4468 62.6218 30.54 62.723C30.8443 63.0515 31.1608 63.376 31.4818 63.6881C31.5804 63.7843 31.5835 63.9428 31.4885 64.0426C31.4399 64.0937 31.3751 64.1196 31.3103 64.1196ZM68.7958 62.491C68.7378 62.491 68.6797 62.4705 68.6329 62.429C68.5302 62.3379 68.5199 62.1793 68.6099 62.0754C68.9034 61.7369 69.1915 61.3855 69.467 61.0324C69.5516 60.9235 69.7074 60.9052 69.8145 60.9909C69.9217 61.0766 69.9401 61.2342 69.8555 61.3427C69.5746 61.7031 69.2806 62.0609 68.9817 62.4058C68.9331 62.4619 68.8647 62.491 68.7958 62.491ZM29.4605 62.1224C29.3903 62.1224 29.3201 62.0923 29.2715 62.0335C28.9789 61.6831 28.6917 61.3199 28.418 60.9549C28.3351 60.8446 28.3567 60.6874 28.4652 60.6036C28.5742 60.5197 28.7295 60.5416 28.8123 60.6514C29.081 61.0096 29.3628 61.3655 29.6496 61.7095C29.7378 61.8152 29.7248 61.9734 29.6203 62.0627C29.5735 62.1028 29.5168 62.1224 29.4605 62.1224ZM70.4713 60.3402C70.4218 60.3402 70.3718 60.3252 70.3286 60.2942C70.217 60.2144 70.1904 60.0577 70.2697 59.9447C70.5267 59.5769 70.7779 59.1973 71.0156 58.8164C71.0885 58.6993 71.2416 58.6646 71.3573 58.7385C71.4729 58.8123 71.5072 58.9672 71.4342 59.0843C71.1916 59.4726 70.9359 59.8594 70.6739 60.234C70.6257 60.3033 70.5492 60.3402 70.4713 60.3402ZM27.8255 59.9428C27.7463 59.9428 27.6684 59.9046 27.6207 59.833C27.3659 59.4539 27.1174 59.0629 26.8829 58.6715C26.8118 58.553 26.8491 58.399 26.9662 58.327C27.0832 58.255 27.2354 58.2928 27.3065 58.4113C27.5365 58.7954 27.7805 59.1787 28.0304 59.551C28.1073 59.6653 28.0781 59.8212 27.9651 59.8991C27.9219 59.9287 27.8737 59.9428 27.8255 59.9428ZM71.9182 58.0235C71.8772 58.0235 71.8353 58.013 71.7971 57.9916C71.6778 57.9237 71.6355 57.7711 71.7025 57.6503C71.9204 57.257 72.1311 56.8529 72.3283 56.4491C72.389 56.3252 72.5371 56.2741 72.66 56.3357C72.7825 56.3972 72.8329 56.5471 72.7721 56.6715C72.5709 57.083 72.3566 57.4954 72.1342 57.8959C72.0892 57.9775 72.005 58.0235 71.9182 58.0235ZM26.4237 57.6047C26.3355 57.6047 26.25 57.5569 26.2054 57.4726C25.9911 57.0688 25.7845 56.6542 25.5914 56.24C25.5329 56.1146 25.586 55.9656 25.7098 55.9064C25.8336 55.8472 25.9812 55.9009 26.0393 56.0262C26.2288 56.4327 26.4314 56.8392 26.6416 57.2352C26.7064 57.3573 26.6614 57.509 26.5408 57.5747C26.5034 57.5952 26.4633 57.6047 26.4237 57.6047ZM73.1187 55.5655C73.0859 55.5655 73.053 55.5592 73.0211 55.545C72.8955 55.4904 72.8374 55.3427 72.8914 55.2156C73.0679 54.8009 73.2353 54.3767 73.3897 53.9538C73.437 53.8239 73.5797 53.7579 73.708 53.8057C73.8363 53.8535 73.902 53.998 73.8543 54.1279C73.6968 54.5589 73.5261 54.9918 73.3461 55.4143C73.306 55.5086 73.2146 55.5655 73.1187 55.5655ZM25.2713 55.1331C25.1736 55.1331 25.0813 55.0743 25.0422 54.9773C24.8702 54.5526 24.7073 54.1174 24.5578 53.6845C24.5128 53.5537 24.5808 53.4111 24.71 53.3651C24.8392 53.3195 24.9801 53.3883 25.0255 53.5191C25.1723 53.9442 25.3321 54.3707 25.5004 54.7872C25.5522 54.9153 25.4919 55.0616 25.3649 55.114C25.3343 55.1272 25.3024 55.1331 25.2713 55.1331ZM74.0587 52.9918C74.0344 52.9918 74.0096 52.9882 73.9853 52.9805C73.8548 52.9394 73.7818 52.7991 73.8223 52.6669C73.9542 52.2372 74.0767 51.798 74.1861 51.3619C74.2198 51.2279 74.3544 51.1463 74.4868 51.1805C74.6191 51.2147 74.6993 51.3509 74.666 51.4849C74.5543 51.9296 74.4296 52.3776 74.295 52.8155C74.2617 52.923 74.164 52.9918 74.0587 52.9918ZM24.3791 52.5485C24.2719 52.5485 24.1729 52.4774 24.1414 52.368C24.0149 51.9278 23.8979 51.4781 23.7939 51.031C23.7624 50.8962 23.8452 50.7613 23.978 50.7298C24.1112 50.6979 24.2445 50.7818 24.2755 50.9162C24.3773 51.3546 24.4921 51.7961 24.6163 52.2277C24.6546 52.3607 24.579 52.4997 24.448 52.5384C24.425 52.5453 24.402 52.5485 24.3791 52.5485ZM74.7245 50.338C74.7083 50.338 74.6921 50.3366 74.6759 50.3329C74.5417 50.3061 74.4548 50.1739 74.4814 50.0381C74.5683 49.5966 74.6443 49.1468 74.7083 48.7016C74.7281 48.5644 74.8537 48.4696 74.9887 48.4897C75.1242 48.5097 75.2179 48.6369 75.198 48.7736C75.1332 49.2279 75.0553 49.6863 74.9671 50.1361C74.9437 50.2555 74.8402 50.338 74.7245 50.338ZM23.7597 49.8832C23.6422 49.8832 23.5377 49.798 23.5161 49.6772C23.4355 49.2261 23.3658 48.7663 23.309 48.3111C23.2919 48.1739 23.3878 48.0481 23.5233 48.0308C23.6588 48.0131 23.7831 48.1106 23.8002 48.2477C23.856 48.6943 23.9244 49.1454 24.0036 49.5883C24.028 49.7246 23.9384 49.8549 23.8038 49.8795C23.7889 49.8818 23.7741 49.8832 23.7597 49.8832ZM75.1125 47.6289C75.1049 47.6289 75.0972 47.6285 75.0896 47.628C74.9536 47.6152 74.8532 47.4931 74.8658 47.3555C74.9063 46.9076 74.9361 46.4523 74.9541 46.0021C74.9595 45.8636 75.0756 45.757 75.2116 45.762C75.3484 45.7674 75.4546 45.8841 75.4488 46.0226C75.4308 46.4815 75.4002 46.9454 75.3588 47.402C75.3471 47.5309 75.239 47.6289 75.1125 47.6289ZM23.4189 47.1673C23.2906 47.1673 23.1821 47.0671 23.1722 46.9354C23.1384 46.4788 23.1164 46.014 23.106 45.5546C23.1029 45.4161 23.2114 45.3013 23.3478 45.2985C23.4864 45.2963 23.5981 45.4052 23.6008 45.5432C23.6111 45.9944 23.6327 46.4501 23.6656 46.898C23.6759 47.0361 23.5733 47.1564 23.4369 47.1664C23.431 47.1673 23.4247 47.1673 23.4189 47.1673ZM75.221 44.893C75.0855 44.893 74.9752 44.7827 74.9734 44.6451C74.9685 44.194 74.9518 43.7378 74.9243 43.2894C74.9158 43.1514 75.0193 43.0324 75.1562 43.0238C75.2926 43.0151 75.4101 43.1199 75.4186 43.2585C75.447 43.7155 75.4636 44.1803 75.4686 44.6401C75.4699 44.7786 75.3606 44.8921 75.2237 44.8934C75.2228 44.893 75.2219 44.893 75.221 44.893ZM23.3572 44.4296C23.355 44.4296 23.3523 44.4296 23.35 44.4296C23.2132 44.4255 23.1056 44.3102 23.1096 44.1721C23.1227 43.7128 23.1474 43.248 23.1835 42.7914C23.1943 42.6533 23.3135 42.5508 23.4499 42.5617C23.5863 42.5727 23.6881 42.6934 23.6768 42.8315C23.6413 43.2799 23.617 43.7356 23.6044 44.1862C23.6008 44.322 23.4909 44.4296 23.3572 44.4296ZM75.0517 42.1603C74.9275 42.1603 74.8204 42.0659 74.806 41.9383C74.7551 41.4909 74.6921 41.0393 74.6182 40.5954C74.5957 40.4587 74.6867 40.3298 74.8213 40.3065C74.9559 40.2838 75.0837 40.3758 75.1067 40.512C75.1818 40.9641 75.2462 41.4248 75.298 41.8809C75.3137 42.0185 75.2161 42.1429 75.0801 42.1584C75.0707 42.1598 75.0612 42.1603 75.0517 42.1603ZM23.5737 41.6996C23.5629 41.6996 23.5517 41.6986 23.5409 41.6973C23.4054 41.6791 23.3099 41.5528 23.328 41.4157C23.3878 40.9604 23.4603 40.5007 23.5431 40.05C23.5683 39.9137 23.6975 39.8244 23.8321 39.8495C23.9667 39.875 24.0554 40.0058 24.0302 40.142C23.9487 40.584 23.8776 41.0352 23.8191 41.4817C23.8024 41.608 23.6962 41.6996 23.5737 41.6996ZM74.6034 39.4608C74.4899 39.4608 74.3878 39.3815 74.3621 39.2644C74.2653 38.8251 74.1559 38.3822 74.0366 37.9488C74.0002 37.8153 74.0771 37.6772 74.2086 37.6403C74.3405 37.603 74.4769 37.6813 74.5133 37.8144C74.6349 38.2564 74.7465 38.7075 74.8451 39.1555C74.8748 39.2908 74.7906 39.4243 74.6574 39.4544C74.6389 39.4585 74.6209 39.4608 74.6034 39.4608ZM73.8782 36.8233C73.7746 36.8233 73.6783 36.7572 73.6436 36.6524C73.5018 36.2254 73.3474 35.7971 73.1836 35.3783C73.1331 35.2498 73.1957 35.104 73.3227 35.053C73.4496 35.0019 73.5937 35.0653 73.6441 35.1938C73.8106 35.6203 73.9687 36.0573 74.1132 36.4925C74.1568 36.6237 74.087 36.7659 73.9574 36.8101C73.9308 36.8187 73.9043 36.8233 73.8782 36.8233ZM72.8847 34.2797C72.7906 34.2797 72.701 34.2254 72.6596 34.1334C72.475 33.7251 72.2769 33.3159 72.0717 32.9172C72.0082 32.7946 72.0555 32.6429 72.1765 32.5791C72.2976 32.5148 72.4475 32.5627 72.5106 32.6852C72.7203 33.0917 72.922 33.5087 73.1102 33.9251C73.1669 34.0509 73.1124 34.1999 72.9882 34.2573C72.954 34.2724 72.9189 34.2797 72.8847 34.2797ZM71.6341 31.8563C71.5495 31.8563 71.4671 31.8121 71.4207 31.7333C71.1947 31.3464 70.9557 30.96 70.7104 30.585C70.6347 30.4697 70.6658 30.3143 70.7797 30.2378C70.8936 30.1612 71.0471 30.1926 71.1227 30.3079C71.373 30.6903 71.617 31.084 71.847 31.4786C71.9164 31.598 71.8776 31.7515 71.7597 31.8217C71.7205 31.845 71.6769 31.8563 71.6341 31.8563ZM70.1405 29.5766C70.0648 29.5766 69.9897 29.5415 69.9415 29.4749C69.6772 29.1136 69.3995 28.7545 69.1163 28.4068C69.0295 28.3002 69.0443 28.1421 69.1496 28.0541C69.255 27.9662 69.4112 27.9812 69.4981 28.0878C69.7866 28.4419 70.0693 28.8083 70.339 29.1765C70.4205 29.2877 70.3975 29.4449 70.2872 29.5269C70.2435 29.5602 70.1918 29.5766 70.1405 29.5766ZM68.4204 27.4645C68.3533 27.4645 68.2867 27.4371 68.2376 27.3829C67.9374 27.0507 67.6245 26.7222 67.3076 26.4064C67.2103 26.3093 67.209 26.1507 67.3049 26.0519C67.4008 25.953 67.5574 25.9521 67.6551 26.0491C67.9779 26.3708 68.297 26.7058 68.6032 27.0443C68.6954 27.1464 68.6887 27.305 68.5878 27.3984C68.5401 27.4426 68.4803 27.4645 68.4204 27.4645ZM66.4923 25.5433C66.4338 25.5433 66.3753 25.5223 66.328 25.48C65.9954 25.181 65.6501 24.8871 65.3026 24.606C65.1959 24.5194 65.1783 24.3617 65.2634 24.2537C65.3489 24.1457 65.5047 24.128 65.6114 24.2141C65.9656 24.5007 66.3172 24.8001 66.6566 25.1049C66.7588 25.197 66.7683 25.3551 66.6774 25.4586C66.6287 25.5151 66.5608 25.5433 66.4923 25.5433ZM64.3775 23.834C64.3275 23.834 64.2771 23.819 64.2334 23.7871C63.8715 23.5246 63.4978 23.2681 63.1233 23.0252C63.0081 22.9505 62.9748 22.7955 63.0486 22.6789C63.1224 22.5622 63.2755 22.5285 63.3907 22.6032C63.7724 22.8507 64.1533 23.1122 64.522 23.3797C64.6332 23.4604 64.6588 23.6171 64.5791 23.7292C64.531 23.798 64.4549 23.834 64.3775 23.834ZM62.0978 22.3558C62.0564 22.3558 62.0141 22.3453 61.9754 22.323C61.5883 22.0997 61.1903 21.8842 60.7924 21.6823C60.6699 21.6203 60.6209 21.4695 60.6821 21.346C60.7433 21.2225 60.8923 21.1724 61.0143 21.2344C61.4199 21.4403 61.8255 21.66 62.2203 21.8874C62.3391 21.9557 62.3805 22.1088 62.313 22.2291C62.2675 22.3107 62.1838 22.3558 62.0978 22.3558ZM59.6769 21.1264C59.6435 21.1264 59.6102 21.1195 59.5778 21.1054C59.1695 20.9245 58.7509 20.7523 58.3345 20.5932C58.2066 20.5445 58.1418 20.4 58.19 20.2701C58.2381 20.1407 58.3808 20.0751 58.5091 20.1239C58.9341 20.2856 59.3604 20.4615 59.7768 20.6461C59.9019 20.7017 59.9591 20.8493 59.9042 20.976C59.8632 21.0699 59.7723 21.1264 59.6769 21.1264ZM39.8922 20.7081C39.7931 20.7081 39.6995 20.6475 39.6612 20.5481C39.6117 20.4192 39.6747 20.2738 39.8021 20.2237C40.2248 20.0573 40.6574 19.9001 41.0883 19.7566C41.2179 19.7133 41.3579 19.7848 41.4007 19.9161C41.4434 20.0478 41.3728 20.189 41.2431 20.2323C40.8209 20.3731 40.3964 20.5272 39.9818 20.6903C39.952 20.7026 39.9219 20.7081 39.8922 20.7081ZM57.1406 20.1594C57.1159 20.1594 57.0907 20.1558 57.0655 20.1476C56.6414 20.0113 56.2084 19.8846 55.778 19.7712C55.6456 19.7361 55.5664 19.5994 55.6006 19.4654C55.6353 19.3314 55.7703 19.2512 55.9027 19.2859C56.3411 19.4016 56.7828 19.5306 57.2149 19.6696C57.3455 19.7115 57.4175 19.8523 57.3761 19.9844C57.3432 20.0915 57.2455 20.1594 57.1406 20.1594ZM42.4613 19.8514C42.3523 19.8514 42.2524 19.778 42.2227 19.6664C42.1867 19.5328 42.2645 19.3952 42.3964 19.3588C42.834 19.2385 43.2806 19.1282 43.7235 19.0311C43.8572 19.002 43.9891 19.0881 44.0179 19.223C44.0467 19.3579 43.9621 19.4918 43.8284 19.521C43.394 19.6162 42.956 19.7242 42.5265 19.8423C42.5045 19.8486 42.4829 19.8514 42.4613 19.8514ZM54.5234 19.4695C54.5067 19.4695 54.4901 19.4677 54.4734 19.4645C54.0381 19.3743 53.5943 19.2941 53.1544 19.2271C53.0194 19.2066 52.9262 19.0785 52.9465 18.9418C52.9667 18.8051 53.0928 18.7108 53.2283 18.7313C53.6766 18.8001 54.129 18.8812 54.5729 18.9733C54.7071 19.0011 54.793 19.1337 54.7656 19.269C54.7417 19.3879 54.6386 19.4695 54.5234 19.4695ZM45.1051 19.2727C44.9858 19.2727 44.8809 19.1852 44.8611 19.0621C44.839 18.9254 44.9309 18.7969 45.0659 18.7746C45.5129 18.7012 45.9685 18.6388 46.4195 18.5891C46.555 18.5741 46.6775 18.6734 46.6923 18.811C46.7072 18.9487 46.6091 19.0722 46.4731 19.0872C46.0306 19.1359 45.584 19.197 45.1451 19.269C45.1316 19.2717 45.1181 19.2727 45.1051 19.2727ZM51.849 19.0603C51.8409 19.0603 51.8328 19.0599 51.8247 19.0589C51.383 19.0152 50.9333 18.9824 50.4881 18.9614C50.3517 18.955 50.2459 18.8379 50.2522 18.6994C50.2585 18.5613 50.3751 18.4547 50.5111 18.4606C50.9644 18.4816 51.4227 18.5153 51.8733 18.56C52.0092 18.5736 52.1087 18.6962 52.0957 18.8338C52.0826 18.9637 51.975 19.0603 51.849 19.0603ZM47.7943 18.9765C47.6638 18.9765 47.5549 18.8735 47.5472 18.74C47.5395 18.6019 47.644 18.4834 47.7804 18.4757C48.2324 18.4497 48.6915 18.4356 49.1457 18.4328C49.1462 18.4328 49.1466 18.4328 49.1471 18.4328C49.283 18.4328 49.3938 18.544 49.3947 18.6821C49.3956 18.8206 49.2853 18.9332 49.1484 18.9341C48.7028 18.9364 48.2522 18.9505 47.8087 18.976C47.8038 18.976 47.7993 18.9765 47.7943 18.9765Z" fill="white"/>
<path d="M37.2128 18.8348C37.2128 28.5162 29.9966 36.4916 20.7116 37.5501C20.0206 37.629 19.3183 37.6695 18.6066 37.6695C8.33073 37.6691 0 29.2366 0 18.8348C0 8.43242 8.33073 0 18.6066 0C28.4526 0 36.5119 7.74069 37.1696 17.5383C37.1984 17.9662 37.2128 18.3991 37.2128 18.8348Z" fill="#EBBFB7"/>
<path d="M17.9363 36.1261C17.9331 36.1261 17.9295 36.1261 17.9264 36.1261C17.469 36.1079 17.0076 36.071 16.5547 36.0163C16.4188 35.9999 16.322 35.875 16.3382 35.7379C16.3544 35.6007 16.4778 35.5023 16.6133 35.5187C17.0531 35.572 17.5014 35.608 17.9453 35.6253C18.0821 35.6308 18.1884 35.7474 18.183 35.8855C18.178 36.0204 18.0686 36.1261 17.9363 36.1261ZM19.2926 36.1252C19.1603 36.1252 19.0509 36.0195 19.0455 35.8846C19.0401 35.7461 19.1463 35.6299 19.2832 35.624C19.6834 35.6075 20.0876 35.5766 20.4851 35.5314C20.5288 35.5264 20.5724 35.5214 20.6157 35.516C20.7516 35.4996 20.875 35.5975 20.8912 35.7347C20.9074 35.8723 20.8106 35.9967 20.6751 36.0136C20.6301 36.019 20.5855 36.0245 20.5405 36.0295C20.1313 36.076 19.7149 36.1083 19.303 36.1252C19.2994 36.1252 19.2958 36.1252 19.2926 36.1252ZM15.2452 35.7998C15.229 35.7998 15.2123 35.798 15.1957 35.7948C14.7473 35.7028 14.2976 35.5916 13.8587 35.4631C13.7273 35.4248 13.6516 35.2858 13.6894 35.1528C13.7273 35.0197 13.8646 34.9432 13.996 34.9814C14.4223 35.1058 14.859 35.2143 15.2938 35.3036C15.428 35.3309 15.5144 35.4631 15.4874 35.5989C15.464 35.7178 15.3605 35.7998 15.2452 35.7998ZM21.9837 35.7962C21.8685 35.7962 21.7654 35.7142 21.7415 35.5957C21.7141 35.4599 21.8009 35.3278 21.9346 35.3C22.3695 35.2102 22.8062 35.1017 23.2325 34.9769C23.3639 34.9386 23.5012 35.0152 23.539 35.1478C23.5768 35.2808 23.5012 35.4198 23.3702 35.4581C22.9313 35.5866 22.4816 35.6987 22.0337 35.7912C22.017 35.7948 22.0004 35.7962 21.9837 35.7962ZM12.6406 35.0393C12.6113 35.0393 12.5816 35.0338 12.5528 35.0229C12.1251 34.8589 11.6988 34.6752 11.2856 34.4765C11.1622 34.4173 11.1096 34.2678 11.1681 34.1425C11.2266 34.0177 11.3743 33.9644 11.498 34.0236C11.8996 34.2163 12.3133 34.395 12.7283 34.554C12.8562 34.6032 12.9206 34.7477 12.8724 34.8771C12.8346 34.9778 12.7405 35.0393 12.6406 35.0393ZM24.5879 35.0334C24.488 35.0334 24.3939 34.9719 24.3565 34.8716C24.3079 34.7422 24.3723 34.5973 24.5001 34.5485C24.9147 34.389 25.328 34.2104 25.7286 34.0177C25.852 33.9584 25.9996 34.0113 26.0586 34.1361C26.1171 34.261 26.0649 34.4105 25.9415 34.4702C25.5287 34.6688 25.1029 34.8529 24.6761 35.017C24.6469 35.0279 24.6172 35.0334 24.5879 35.0334ZM10.1899 33.8623C10.148 33.8623 10.1052 33.8513 10.0661 33.8286C9.67038 33.5971 9.27874 33.3464 8.90241 33.0831C8.78986 33.0042 8.7615 32.8484 8.83938 32.7345C8.91726 32.6205 9.07122 32.5918 9.18376 32.6707C9.54929 32.9263 9.92923 33.1696 10.3137 33.3943C10.4321 33.4636 10.4726 33.6167 10.4041 33.7365C10.3587 33.8172 10.2754 33.8623 10.1899 33.8623ZM27.035 33.855C26.9495 33.855 26.8662 33.8103 26.8203 33.7297C26.7518 33.6098 26.7924 33.4567 26.9103 33.387C27.2943 33.1619 27.6738 32.9186 28.0389 32.6625C28.1514 32.5836 28.3054 32.6123 28.3832 32.7258C28.4611 32.8397 28.4328 32.9956 28.3207 33.0744C27.9448 33.3378 27.5536 33.5889 27.1583 33.8204C27.1201 33.8441 27.0773 33.855 27.035 33.855ZM7.95886 32.3025C7.90394 32.3025 7.84857 32.2838 7.80221 32.246C7.44838 31.9534 7.1013 31.6426 6.77178 31.3223C6.67319 31.2266 6.67004 31.068 6.76458 30.9678C6.85911 30.868 7.01577 30.8648 7.11481 30.9605C7.43532 31.2717 7.77204 31.5734 8.11552 31.8577C8.22131 31.9452 8.23706 32.1033 8.15063 32.2104C8.10156 32.271 8.03044 32.3025 7.95886 32.3025ZM29.2642 32.2938C29.1926 32.2938 29.1215 32.2624 29.0724 32.2018C28.986 32.0947 29.0013 31.9366 29.1075 31.8491C29.451 31.5647 29.7873 31.2626 30.1078 30.9514C30.2064 30.8557 30.3631 30.8584 30.458 30.9582C30.5526 31.058 30.5499 31.2166 30.4513 31.3127C30.1218 31.6335 29.7751 31.9443 29.4213 32.2373C29.3749 32.2756 29.3196 32.2938 29.2642 32.2938ZM6.0029 30.4023C5.93448 30.4023 5.8665 30.374 5.81743 30.318C5.51402 29.9721 5.22052 29.6094 4.94592 29.2398C4.86354 29.1291 4.8856 28.9723 4.99453 28.889C5.10392 28.8056 5.25878 28.8279 5.34116 28.9382C5.60811 29.2968 5.89306 29.649 6.18792 29.9853C6.27885 30.0888 6.2694 30.2473 6.16721 30.3389C6.11994 30.3813 6.06142 30.4023 6.0029 30.4023ZM31.2188 30.3923C31.1603 30.3923 31.1018 30.3713 31.0545 30.3294C30.9523 30.2373 30.9429 30.0792 31.0333 29.9758C31.3278 29.6395 31.6127 29.2868 31.8792 28.9277C31.9616 28.817 32.1164 28.7951 32.2258 28.878C32.3352 28.9614 32.3568 29.1182 32.2749 29.2289C32.0003 29.5985 31.7072 29.9616 31.4038 30.3079C31.3552 30.364 31.2872 30.3923 31.2188 30.3923ZM4.37151 28.2114C4.28958 28.2114 4.20945 28.1703 4.16218 28.0952C3.91729 27.7046 3.68501 27.2991 3.47208 26.8903C3.40816 26.7677 3.45453 26.6165 3.57562 26.5518C3.69671 26.487 3.84617 26.5344 3.91009 26.6566C4.11672 27.0535 4.34225 27.4472 4.57993 27.8268C4.65331 27.9434 4.6191 28.0983 4.50341 28.1726C4.46289 28.1986 4.41698 28.2114 4.37151 28.2114ZM32.8489 28.199C32.8034 28.199 32.7579 28.1863 32.7165 28.1603C32.6008 28.086 32.5666 27.9316 32.64 27.8145C32.8777 27.4344 33.1027 27.0402 33.3094 26.6429C33.3728 26.5203 33.5227 26.4734 33.6438 26.5376C33.7649 26.6019 33.8113 26.7536 33.7478 26.8762C33.5354 27.2854 33.3035 27.6914 33.0586 28.0829C33.0109 28.158 32.9308 28.199 32.8489 28.199ZM3.1088 25.7848C3.01246 25.7848 2.92108 25.7279 2.88102 25.6326C2.7014 25.2075 2.53664 24.7696 2.39214 24.3312C2.34892 24.2 2.4187 24.0578 2.54835 24.0141C2.67799 23.9703 2.81844 24.0409 2.86166 24.1722C3.00211 24.5973 3.16192 25.0225 3.33658 25.4353C3.39015 25.5625 3.33208 25.7101 3.20649 25.7643C3.17407 25.778 3.14121 25.7848 3.1088 25.7848ZM34.1107 25.7693C34.0783 25.7693 34.0454 25.763 34.0139 25.7493C33.8883 25.6951 33.8298 25.5479 33.8833 25.4203C34.0575 25.0065 34.2169 24.5809 34.3574 24.1549C34.4006 24.0236 34.541 23.9525 34.6707 23.9963C34.8003 24.04 34.8705 24.1822 34.8273 24.3134C34.6828 24.7523 34.5185 25.1911 34.3389 25.6171C34.2984 25.7124 34.207 25.7693 34.1107 25.7693ZM2.24854 23.1838C2.13735 23.1838 2.03606 23.1072 2.00815 22.9933C1.89876 22.5445 1.80603 22.0851 1.73265 21.6281C1.71059 21.4914 1.80243 21.3629 1.93747 21.3406C2.07252 21.3182 2.19947 21.4112 2.22153 21.5479C2.29265 21.9917 2.38269 22.4374 2.48892 22.873C2.52179 23.0075 2.44076 23.1432 2.30796 23.1765C2.28815 23.1815 2.26789 23.1838 2.24854 23.1838ZM34.9687 23.166C34.9493 23.166 34.9291 23.1637 34.9093 23.1587C34.7765 23.1259 34.6954 22.9901 34.7278 22.8557C34.8336 22.4201 34.9228 21.974 34.9939 21.5301C35.0155 21.3934 35.1424 21.3005 35.2779 21.3228C35.413 21.3447 35.5048 21.4736 35.4828 21.6103C35.4098 22.0674 35.318 22.5267 35.2091 22.9756C35.1812 23.089 35.0803 23.166 34.9687 23.166ZM1.81368 20.4757C1.68583 20.4757 1.57779 20.3763 1.56699 20.2451C1.53053 19.7853 1.51162 19.3169 1.51117 18.8534C1.51117 18.7149 1.62191 18.6028 1.75831 18.6024C1.75831 18.6024 1.75831 18.6024 1.75876 18.6024C1.89561 18.6024 2.00635 18.7145 2.00635 18.8525C2.0068 19.3032 2.02526 19.758 2.06082 20.2045C2.07162 20.3426 1.97034 20.4634 1.83394 20.4743C1.82718 20.4757 1.82043 20.4757 1.81368 20.4757ZM35.4004 20.457C35.3936 20.457 35.3873 20.4565 35.3806 20.4561C35.2442 20.4451 35.1424 20.3244 35.1532 20.1863C35.1884 19.7397 35.2064 19.285 35.2064 18.8343V18.7983C35.2059 18.6598 35.3167 18.5477 35.4535 18.5472H35.454C35.5904 18.5472 35.7011 18.6593 35.7015 18.7974V18.8348C35.7015 19.2982 35.6831 19.7666 35.6471 20.2264C35.6367 20.3577 35.5282 20.457 35.4004 20.457ZM1.81143 17.732C1.80513 17.732 1.79837 17.7315 1.79162 17.7311C1.65522 17.7202 1.55348 17.5994 1.56429 17.4618C1.6003 17.0002 1.65477 16.5345 1.7268 16.0783C1.74841 15.9416 1.87535 15.8487 2.0104 15.8705C2.14545 15.8924 2.23728 16.0209 2.21568 16.1576C2.14545 16.6005 2.09233 17.0526 2.05767 17.501C2.04776 17.6322 1.93928 17.732 1.81143 17.732ZM35.3968 17.6764C35.2694 17.6764 35.1609 17.5771 35.1501 17.4463C35.1141 16.9979 35.0592 16.5463 34.988 16.1034C34.966 15.9667 35.0574 15.8377 35.1924 15.8154C35.3275 15.7931 35.4549 15.8856 35.4769 16.0223C35.5503 16.478 35.6066 16.9432 35.6439 17.4053C35.6552 17.5434 35.5534 17.6641 35.4175 17.6755C35.4103 17.676 35.4035 17.6764 35.3968 17.6764ZM2.23998 15.023C2.22063 15.023 2.20082 15.0207 2.18101 15.0157C2.04821 14.9829 1.96673 14.8471 1.99915 14.7126C2.10764 14.2633 2.23548 13.8127 2.37999 13.3739C2.4232 13.2426 2.5632 13.1715 2.69285 13.2148C2.8225 13.2586 2.89272 13.4003 2.84996 13.5315C2.70996 13.958 2.58571 14.395 2.48037 14.8316C2.45246 14.9464 2.35162 15.023 2.23998 15.023ZM34.9597 14.9687C34.8485 14.9687 34.7476 14.8926 34.7197 14.7783C34.613 14.3422 34.487 13.9052 34.3461 13.4796C34.3024 13.3483 34.3722 13.2062 34.5019 13.1624C34.6315 13.1182 34.772 13.1888 34.8152 13.3201C34.9606 13.7584 35.0902 14.2087 35.2001 14.658C35.2329 14.7924 35.1519 14.9282 35.0191 14.9615C34.9993 14.966 34.9795 14.9687 34.9597 14.9687ZM3.09484 12.4183C3.06243 12.4183 3.02957 12.4119 2.99806 12.3982C2.87201 12.344 2.81349 12.1968 2.86706 12.0697C3.04578 11.6441 3.2443 11.2198 3.45678 10.8097C3.52025 10.6871 3.6697 10.6398 3.79125 10.704C3.91234 10.7683 3.95916 10.9195 3.89569 11.0426C3.68951 11.4408 3.49684 11.8523 3.32308 12.2656C3.28256 12.3609 3.19118 12.4183 3.09484 12.4183ZM34.0972 12.3682C34.0013 12.3682 33.9099 12.3112 33.8694 12.2164C33.6947 11.804 33.5011 11.3935 33.2936 10.9961C33.2297 10.8735 33.2761 10.7222 33.3967 10.6575C33.5178 10.5928 33.6673 10.6398 33.7312 10.7619C33.9446 11.1711 34.1444 11.594 34.324 12.0186C34.3781 12.1458 34.3195 12.293 34.1939 12.3477C34.1624 12.3618 34.1296 12.3682 34.0972 12.3682ZM4.35395 9.98676C4.30894 9.98676 4.26302 9.97445 4.22205 9.94802C4.10636 9.8742 4.07215 9.71927 4.14508 9.60216C4.38907 9.21118 4.65196 8.82522 4.92701 8.45475C5.00894 8.34402 5.16425 8.32169 5.27364 8.40462C5.38303 8.48756 5.40508 8.64477 5.32315 8.7555C5.05621 9.11503 4.80096 9.49006 4.56418 9.86965C4.51646 9.94529 4.43633 9.98676 4.35395 9.98676ZM32.8313 9.94301C32.7494 9.94301 32.6692 9.902 32.622 9.82681C32.3838 9.44814 32.1277 9.07402 31.8598 8.7154C31.7775 8.60512 31.7991 8.44791 31.908 8.36452C32.017 8.28113 32.1723 8.30301 32.2546 8.41328C32.5301 8.78239 32.7944 9.16744 33.0393 9.5575C33.1127 9.67416 33.0784 9.82909 32.9632 9.90337C32.9227 9.93025 32.8768 9.94301 32.8313 9.94301ZM5.98219 7.79173C5.92367 7.79173 5.86515 7.77122 5.81833 7.72885C5.7157 7.63725 5.70624 7.47868 5.79673 7.37524C6.09969 7.02846 6.4202 6.68989 6.74927 6.36909C6.84786 6.27294 7.00452 6.27613 7.0995 6.37592C7.19448 6.47572 7.19133 6.63429 7.09275 6.73044C6.77313 7.04213 6.46207 7.37068 6.16766 7.70743C6.11859 7.76302 6.05062 7.79173 5.98219 7.79173ZM31.1977 7.75345C31.1292 7.75345 31.0617 7.7252 31.0126 7.66961C30.7178 7.33377 30.4054 7.00613 30.0849 6.69536C29.9863 6.59966 29.9827 6.44108 30.0772 6.34083C30.1717 6.24104 30.3284 6.23739 30.4274 6.33309C30.7578 6.65298 31.0793 6.99064 31.3827 7.33605C31.4736 7.43949 31.4646 7.59806 31.3624 7.69011C31.3147 7.73249 31.2562 7.75345 31.1977 7.75345ZM7.935 5.88789C7.86343 5.88789 7.7923 5.85644 7.74323 5.79629C7.65635 5.68921 7.67211 5.53154 7.7779 5.44359C8.13127 5.15013 8.50086 4.86807 8.87629 4.60468C8.98884 4.52585 9.14279 4.5541 9.22067 4.66802C9.29855 4.78194 9.27064 4.93779 9.1581 5.01662C8.79347 5.27271 8.43469 5.54658 8.09121 5.83138C8.04574 5.8692 7.99037 5.88789 7.935 5.88789ZM29.239 5.85553C29.1841 5.85553 29.1287 5.8373 29.0828 5.79903C28.7384 5.51514 28.3787 5.24173 28.0132 4.987C27.9007 4.90862 27.8723 4.75232 27.9497 4.6384C28.0272 4.52448 28.1816 4.49577 28.2941 4.57415C28.6704 4.83662 29.0409 5.11778 29.3957 5.41033C29.5014 5.49782 29.5176 5.65549 29.4312 5.76303C29.3821 5.82409 29.3106 5.85553 29.239 5.85553ZM10.1624 4.32489C10.0769 4.32489 9.99405 4.28024 9.94814 4.20003C9.87971 4.08019 9.91978 3.92708 10.0382 3.85736C10.4334 3.62496 10.8431 3.40623 11.255 3.20756C11.3783 3.14786 11.5264 3.20072 11.5849 3.32603C11.6439 3.45089 11.5917 3.60036 11.4679 3.66005C11.0677 3.85326 10.6702 4.06561 10.2862 4.29117C10.247 4.31396 10.2043 4.32489 10.1624 4.32489ZM27.0057 4.29846C26.9639 4.29846 26.9211 4.28753 26.8824 4.26474C26.4975 4.04009 26.0991 3.82911 25.698 3.63681C25.5742 3.57757 25.5215 3.42811 25.5801 3.30325C25.6386 3.17794 25.7862 3.12462 25.9096 3.18386C26.3228 3.38163 26.7334 3.59944 27.1295 3.83048C27.2479 3.89974 27.2889 4.05285 27.2205 4.17269C27.1745 4.25335 27.0913 4.29846 27.0057 4.29846ZM12.6073 3.14422C12.5073 3.14422 12.4137 3.0827 12.3759 2.98291C12.3272 2.85349 12.3912 2.70858 12.519 2.65937C12.9458 2.49441 13.3851 2.3454 13.824 2.21645C13.9555 2.17771 14.0928 2.25427 14.1311 2.38733C14.1693 2.52039 14.0937 2.65937 13.9622 2.6981C13.5359 2.82342 13.1096 2.96832 12.695 3.12827C12.6662 3.13875 12.6365 3.14422 12.6073 3.14422ZM24.5546 3.12462C24.5253 3.12462 24.4961 3.11961 24.4673 3.10822C24.0518 2.94964 23.6246 2.8061 23.1978 2.68215C23.0664 2.64388 22.9903 2.50535 23.0281 2.37229C23.0659 2.23923 23.2032 2.16222 23.3342 2.2005C23.7736 2.32809 24.2134 2.47573 24.6415 2.63932C24.7693 2.68808 24.8341 2.83299 24.7855 2.9624C24.7486 3.06265 24.6545 3.12462 24.5546 3.12462ZM15.2096 2.37776C15.0944 2.37776 14.9913 2.29619 14.9675 2.17726C14.94 2.04146 15.0264 1.90932 15.1606 1.88152C15.608 1.78902 16.065 1.71337 16.5187 1.65732C16.6547 1.64046 16.778 1.73843 16.7942 1.87559C16.8109 2.01321 16.7141 2.13807 16.5786 2.15447C16.1379 2.2087 15.694 2.28206 15.2596 2.37183C15.2425 2.37639 15.2259 2.37776 15.2096 2.37776ZM21.9486 2.36682C21.9324 2.36682 21.9162 2.365 21.8995 2.36181C21.4651 2.27341 21.0208 2.20141 20.5796 2.14855C20.4437 2.13214 20.3469 2.00774 20.3627 1.87013C20.3789 1.73251 20.5022 1.63454 20.6377 1.65049C21.0919 1.70517 21.5493 1.77899 21.9968 1.87013C22.1309 1.89747 22.2178 2.02962 22.1908 2.16541C22.1674 2.28434 22.0638 2.36682 21.9486 2.36682ZM17.8998 2.04602C17.7679 2.04602 17.6581 1.9403 17.6527 1.80588C17.6468 1.66735 17.7531 1.55069 17.8899 1.54522C18.3459 1.52609 18.8105 1.52563 19.2661 1.54295C19.4029 1.54841 19.5092 1.66461 19.5042 1.80314C19.4988 1.94167 19.3836 2.0483 19.2472 2.0442C18.8047 2.02734 18.3531 2.02779 17.9102 2.04648C17.907 2.04556 17.9034 2.04602 17.8998 2.04602Z" fill="white"/>
<path d="M14.3562 11.3506C14.6177 11.2977 14.6803 11.3401 14.6907 11.5725C14.7114 12.1544 14.7325 12.7363 14.701 13.3078C14.6803 13.6254 14.7114 13.932 14.6907 14.2497C14.6699 14.6201 14.6591 15.0011 14.6699 15.3711C14.7015 17.0216 14.6699 17.3497 14.6803 17.6778C14.6907 18.1435 14.701 18.6087 14.6907 19.0744V19.4554C14.8266 19.5611 14.9729 19.4978 15.0985 19.4659C15.3492 19.4025 15.6108 19.392 15.8719 19.4025C15.9763 19.413 16.0808 19.4235 16.1856 19.4449C16.2275 19.4449 16.2797 19.4768 16.3216 19.4978C16.426 19.5825 16.4157 19.7411 16.3009 19.8044C16.2383 19.8363 16.1861 19.8468 16.1231 19.8468C16.0812 19.8573 16.0083 19.8363 15.9664 19.8149C15.6842 19.7092 15.4019 19.7516 15.1197 19.8044L14.5344 19.9316C14.4088 19.9525 14.2729 19.8044 14.3044 19.6668C14.4192 19.1802 14.3463 18.6935 14.3566 18.2068V18.1644C14.3773 17.4978 14.3566 15.3182 14.3773 14.8844C14.3877 14.7044 14.398 14.5249 14.398 14.3554L14.3665 12.3663C14.3562 12.0701 14.3562 11.7844 14.3458 11.4987C14.3458 11.4458 14.3562 11.393 14.3562 11.3506Z" fill="#1B2536"/>
<path d="M17.9026 19.0676C17.5001 18.986 17.1346 19.1341 16.7465 19.1123L16.7029 19.2973C16.6736 19.4381 16.6516 19.5862 16.6299 19.727C16.6079 19.8158 16.5566 19.8454 16.4764 19.8309C16.3959 19.8085 16.3594 19.7643 16.3738 19.6677L16.4395 19.3196C16.476 19.1268 16.5053 18.9272 16.5422 18.7345L16.6372 18.1494C16.7029 17.6828 16.7763 17.2162 16.842 16.7573C16.9005 16.3057 16.9734 15.861 17.0247 15.4167C17.0689 15.0685 17.0905 14.7131 17.1197 14.3649C17.1269 14.2168 17.1855 14.1057 17.3101 14.0318C17.3615 13.9949 17.4492 14.0168 17.4713 14.076C17.5006 14.1576 17.537 14.2465 17.537 14.3353C17.5222 14.5427 17.5591 14.7427 17.5883 14.95C17.632 15.2613 17.6541 15.5793 17.691 15.8906C17.7495 16.3941 17.8152 16.8903 17.8814 17.3939L18.057 18.6529C18.079 18.7937 18.1083 18.9345 18.1375 19.0749C18.174 19.2599 18.2105 19.4454 18.2397 19.6304C18.2469 19.675 18.2469 19.7192 18.2469 19.7639C18.2397 19.8304 18.174 19.8824 18.115 19.8751C18.0493 19.8751 17.9908 19.8231 17.9836 19.7639C17.9615 19.6007 17.9471 19.4454 17.9323 19.2827C17.9242 19.2234 17.9098 19.1569 17.9026 19.0676ZM17.3169 14.8908C17.2804 15.2093 17.2584 15.4613 17.2219 15.7129C17.1927 15.8979 17.149 16.0833 17.1193 16.2683C17.068 16.6092 17.0315 16.9496 16.9874 17.2904C16.9437 17.6017 16.8847 17.9124 16.8483 18.2237C16.8262 18.4087 16.7533 18.5864 16.7898 18.7942C16.8411 18.8165 16.8924 18.8461 16.9509 18.8534C17.0315 18.8607 17.1121 18.8534 17.1922 18.8461C17.4042 18.8238 17.6091 18.8015 17.8287 18.7796V18.6538C17.7923 18.3873 17.7482 18.1207 17.7117 17.8541C17.6604 17.4691 17.6019 17.084 17.5505 16.7062C17.5141 16.4173 17.47 16.1357 17.4407 15.8473C17.4186 15.588 17.4042 15.3287 17.375 15.0621C17.3754 15.0243 17.3538 14.987 17.3169 14.8908Z" fill="#1B2536"/>
<path d="M37.2601 50.9171C35.0556 50.471 33.0519 51.2821 30.9276 51.1605L30.6872 52.1748C30.527 52.9458 30.4068 53.7569 30.2866 54.528C30.1664 55.0146 29.8859 55.1769 29.4448 55.0957C29.0041 54.9741 28.8037 54.7307 28.8839 54.2031L29.2444 52.2965C29.4448 51.2416 29.605 50.1461 29.8053 49.0917L30.3262 45.8868C30.6868 43.3309 31.0879 40.775 31.4484 38.2596C31.769 35.7848 32.1701 33.3505 32.4505 30.9163C32.6909 29.0097 32.8111 27.0621 32.9714 25.1555C33.0114 24.344 33.3319 23.7356 34.0135 23.3301C34.2939 23.1273 34.7752 23.249 34.8954 23.5734C35.0556 24.0195 35.2559 24.5066 35.2559 24.9933C35.1758 26.1293 35.3761 27.2248 35.5364 28.3608C35.7768 30.0646 35.897 31.8094 36.0973 33.5132C36.4178 36.2719 36.7788 38.9901 37.1394 41.7488L38.1014 48.6455C38.2216 49.4166 38.3819 50.1871 38.5421 50.9581C38.7424 51.9725 38.9428 52.9868 39.103 54.0007C39.1431 54.2441 39.1431 54.4874 39.1431 54.7312C39.103 55.0962 38.7425 55.3805 38.4219 55.3395C38.0614 55.3395 37.7404 55.0556 37.7003 54.7312C37.5801 53.8385 37.5 52.9868 37.4199 52.0942C37.3803 51.7693 37.3001 51.4038 37.2601 50.9171ZM34.0535 28.0354C33.8532 29.7798 33.733 31.1592 33.5327 32.5385C33.3724 33.5529 33.1321 34.5672 32.9718 35.5811C32.6914 37.4471 32.491 39.3136 32.2502 41.1796C32.0098 42.8834 31.6893 44.5877 31.4885 46.2915C31.3683 47.3058 30.9677 48.2792 31.168 49.4152C31.4484 49.5369 31.7289 49.6991 32.0499 49.7396C32.4906 49.7802 32.9317 49.7396 33.3724 49.6991C34.5348 49.5774 35.657 49.4558 36.8594 49.3341V48.6442C36.6591 47.1837 36.4187 45.7232 36.2184 44.2628C35.9379 42.153 35.617 40.0436 35.3365 37.9744C35.1362 36.3922 34.8958 34.8506 34.7351 33.2681C34.6149 31.8481 34.5348 30.4282 34.3745 28.9678C34.3745 28.7659 34.2543 28.5631 34.0535 28.0354Z" fill="#1B2536"/>
<path d="M48.8423 50.9982C49.1227 50.9982 49.0426 50.5116 49.0426 50.3083C49.1227 49.0507 49.2029 47.793 49.2429 46.5353C49.3231 45.1154 49.3231 43.6955 49.3631 42.3161C49.3631 41.6672 49.4432 41.0584 49.4432 40.4906C49.4833 38.6246 49.5234 36.7581 49.5234 34.8921C49.5234 33.1883 49.3631 31.5246 49.4032 29.8614C49.4432 27.8732 49.4433 25.9261 49.3231 23.938C49.3231 23.6946 49.283 23.4107 49.3631 23.2075C49.4433 23.0453 49.9641 22.8019 50.0847 22.7614C50.2851 22.7614 50.5254 22.9642 50.6056 23.1264C50.7258 23.3292 50.7258 23.613 50.7258 23.8568C50.7258 25.2362 50.7658 26.575 50.7258 27.9543C50.7258 29.983 50.6056 32.0113 50.6857 33.9994C50.886 36.5554 50.7258 39.0707 50.6056 41.5861V45.3592C50.6056 45.8458 50.3652 51.1199 50.2049 54.2846C50.245 54.8119 50.2049 55.299 50.0046 55.7451C48.8824 55.7857 48.5218 55.7451 48.3214 54.8524C47.8006 52.4993 47.3194 50.1461 46.7985 47.834C46.6383 46.9413 46.3178 46.0896 46.117 45.1969C45.1951 40.9372 44.3537 36.677 43.4318 32.4173C43.1914 31.2002 42.951 30.0236 42.6701 28.8876C42.59 28.6442 42.5499 28.4009 42.3496 28.1571C42.3896 29.2526 42.3496 30.2669 42.4698 31.3214C42.6701 33.1063 42.63 34.8511 42.5499 36.636C42.5098 38.5832 42.4698 40.5713 42.3896 42.5184C42.2294 46.3726 42.4297 49.9834 42.4297 53.6344C42.4297 53.8777 42.5098 54.121 42.5098 54.3648C42.5098 54.7298 42.4297 55.1359 42.1492 55.2575C41.9489 55.4197 41.7085 55.582 41.4276 55.4197C41.2273 55.0547 41.2273 54.852 41.2273 54.6082C41.0671 52.0522 41.0671 45.8855 41.1071 42.7212C41.1071 41.3419 41.2273 40.0031 41.3475 35.0129C41.4276 32.2136 41.1071 29.4549 41.027 26.6962L40.9068 23.3693C40.9068 23.1259 41.0671 22.9231 41.3475 22.842L42.0691 22.7204C42.1893 22.9637 42.3496 23.0854 42.3496 23.2881C43.1513 26.0874 44.0327 28.9272 44.514 31.8081C44.9146 34.0801 45.3958 36.3521 45.9968 38.5832C45.8766 38.0559 48.5618 49.2124 48.682 49.8618L48.8423 50.9982Z" fill="#1B2536"/>
<path d="M61.2663 50.9171C59.0619 50.471 57.0582 51.2821 54.9339 51.1605L54.6935 52.1748C54.5332 52.9458 54.4131 53.7569 54.2929 54.528C54.1727 55.0146 53.8922 55.1769 53.4511 55.0957C53.0103 54.9741 52.81 54.7307 52.8902 54.2031L53.2507 52.2965C53.4511 51.2416 53.6113 50.1461 53.8116 49.0917L54.3325 45.8868C54.6931 43.3309 55.0942 40.775 55.4547 38.2596C55.7753 35.7848 56.1763 33.3505 56.4568 30.9163C56.6972 29.0097 56.8174 27.0621 56.9776 25.1555C57.0177 24.344 57.3382 23.7356 58.0198 23.3301C58.3002 23.1273 58.7814 23.249 58.9016 23.5734C59.0619 24.0195 59.2622 24.5066 59.2622 24.9933C59.1821 26.1293 59.3824 27.2248 59.5427 28.3608C59.7831 30.0646 59.9033 31.8094 60.1036 33.5132C60.4241 36.2719 60.7851 38.9901 61.1457 41.7488L62.1077 48.6455C62.2279 49.4166 62.3882 50.1871 62.5484 50.9581C62.7487 51.9725 62.9491 52.9868 63.1093 54.0007C63.1494 54.2441 63.1494 54.4874 63.1494 54.7312C63.1093 55.0962 62.7487 55.3805 62.4282 55.3395C62.0676 55.3395 61.7467 55.0556 61.7066 54.7312C61.5864 53.8385 61.5063 52.9868 61.4262 52.0942C61.387 51.7693 61.3064 51.4038 61.2663 50.9171ZM58.0603 28.0354C57.86 29.7798 57.7398 31.1592 57.5394 32.5385C57.3792 33.5529 57.1388 34.5672 56.9785 35.5811C56.6981 37.4471 56.4978 39.3136 56.2569 41.1796C56.0165 42.8834 55.696 44.5877 55.4952 46.2915C55.3751 47.3058 54.9744 48.2792 55.1747 49.4152C55.4552 49.5369 55.7356 49.6991 56.0566 49.7396C56.4973 49.7802 56.9385 49.7396 57.3792 49.6991C58.5415 49.5774 59.6638 49.4558 60.8661 49.3341V48.6442C60.6658 47.1837 60.4254 45.7232 60.2251 44.2628C59.9447 42.153 59.6237 40.0436 59.3432 37.9744C59.1429 36.3922 58.9025 34.8506 58.7418 33.2681C58.6216 31.8481 58.5415 30.4282 58.3812 28.9678C58.3808 28.7659 58.2606 28.5631 58.0603 28.0354Z" fill="#1B2536"/>
<path d="M29.7428 53.2703C29.5136 53.1541 29.2278 52.9805 28.9991 52.9805C28.426 52.8643 27.8539 52.8069 27.2808 52.7485C25.8497 52.6902 24.4182 52.7485 23.0439 53.0958C22.3569 53.2703 21.5556 53.6175 20.8111 53.0384V50.9518C20.8687 48.4013 20.8111 45.8513 20.7543 43.3013C20.6967 41.5046 20.8687 39.7083 20.6967 30.6666C20.6391 28.6415 20.6967 26.5581 20.8102 24.5326C20.8106 24.5313 20.8106 24.5294 20.8106 24.5281V24.5231C20.8732 23.5762 20.8507 22.647 20.8363 21.7165C20.8237 20.9368 20.816 20.1567 20.8682 19.3652C20.8835 19.0822 20.897 18.7997 20.9078 18.5153V18.1891L20.7165 13.1884C20.7165 13.1884 20.7093 12.4393 20.6292 11.4978C20.545 10.5108 20.3812 9.31327 20.0602 8.54408C19.8878 8.52129 19.678 8.53041 19.4228 8.56549C19.4228 8.79197 19.4088 9.00978 19.3876 9.21666C19.3737 9.35428 19.3566 9.48734 19.3372 9.61448C19.3507 9.65594 19.362 9.70743 19.371 9.77077C19.4426 10.2647 19.4309 10.7323 19.3876 11.1542C19.339 11.6373 19.2485 12.0601 19.1945 12.3937C19.1338 12.7642 19.0658 13.12 19.014 13.4782C19.0203 13.7202 19.028 13.9631 19.0365 14.2078L19.0838 17.1998C19.1968 17.8947 19.4169 18.6192 19.4169 19.5342C19.4169 19.9986 19.3678 20.4802 19.3102 20.9687C19.371 21.3219 19.4169 21.7006 19.4169 22.1175C19.4169 22.8758 19.2868 23.6819 19.1995 24.483L19.2089 25.1032C19.2089 25.3921 19.2031 25.6864 19.1941 25.984C19.1729 26.6438 19.1333 27.3228 19.0941 28.0013C18.9798 30.3772 19.0941 42.3161 18.9798 45.9675V46.1995C18.9222 48.8652 19.3228 51.5314 18.6935 54.1972C18.522 54.9509 19.2656 55.762 19.953 55.6462L23.1596 54.9509C24.7054 54.661 26.2513 54.4291 27.7971 55.0092C28.0263 55.1249 28.4269 55.2411 28.6561 55.1828C29 55.1828 29.2858 55.1245 29.6298 54.9509C30.2582 54.6036 30.3158 53.7337 29.7428 53.2703Z" fill="#1B2536"/>
<path d="M20.9079 18.1895V23.356C20.9079 23.4877 20.8835 23.8477 20.8363 24.3002C20.8286 24.374 20.8205 24.4506 20.8106 24.529C20.8106 24.5303 20.8106 24.5322 20.8102 24.5335C20.6756 25.7065 20.4037 27.2954 20.0147 27.2954C19.5992 27.2954 19.3179 26.4506 19.1936 25.984C19.1891 25.9671 19.1846 25.9503 19.181 25.9348C19.181 25.9348 19.0235 19.3533 19.019 19.1382L18.9303 12.5709C18.9303 12.339 18.9451 12.1143 18.969 11.892C18.9816 11.7739 18.9965 11.6568 19.0136 11.5402C19.0653 11.1825 19.1333 10.8266 19.1941 10.4557C19.2328 10.2173 19.2904 9.93298 19.3368 9.61401C19.3561 9.48687 19.3732 9.35381 19.3872 9.2162C19.4084 9.00931 19.4223 8.79195 19.4223 8.56502C19.4223 8.32944 19.407 8.08473 19.3705 7.83274C19.3449 7.65639 19.3035 7.57118 19.2499 7.54794C19.0491 7.45635 18.6782 8.21825 18.3428 8.21825C18.0966 8.21825 17.9102 6.07016 19.1702 5.83411C19.5542 5.76166 19.8428 6.08611 20.0597 6.6065C20.3807 7.37569 20.5446 8.57368 20.6288 9.56024C20.7093 10.5017 20.7161 11.2508 20.7161 11.2508L20.9079 18.1895Z" fill="#1B2536"/>
<path d="M66.9668 65.3541C66.7732 65.1418 66.7408 64.913 66.7246 63.0333C66.7003 61.5213 66.757 59.8216 66.8457 58.98C66.8619 58.841 66.8862 58.6697 66.9992 58.5795C67.1203 58.4815 67.3219 58.4979 67.4268 58.6041C67.5317 58.7184 67.4993 58.8738 67.4917 59.0128C67.4836 59.1924 67.4755 59.3723 67.4593 59.5523C67.403 60.3776 67.3787 61.2033 67.3787 62.4614C67.3787 63.8262 67.4111 64.8314 67.4593 64.8802C67.4917 64.913 68.0809 64.913 68.8399 64.8802C69.3243 64.8638 69.3967 64.8638 69.4697 64.9048C69.5908 64.9618 69.6394 65.0438 69.6394 65.191C69.6394 65.3382 69.5746 65.4361 69.4539 65.4771C69.3085 65.5423 67.7262 65.6079 67.4597 65.5669C67.2652 65.5423 67.0555 65.4439 66.9668 65.3541Z" fill="#1B2536"/>
<path d="M73.1426 65.1581C73.0296 65.3787 72.7145 65.3705 72.5857 65.1499C72.5452 65.0848 72.5371 64.9781 72.5213 64.4637L72.5132 63.859L72.3678 64.1534C72.0851 64.717 71.7948 65.0684 71.4553 65.2238C70.4866 65.6895 70.0828 64.5129 70.0103 63.7692C69.9297 62.8619 70.212 61.7018 70.6806 61.0643C71.0439 60.5658 71.3667 60.3698 71.8272 60.3698C72.1018 60.3698 72.2953 60.4268 72.5375 60.5904C72.9575 60.8683 73.1511 61.3504 73.1592 61.8408C73.1592 62.0449 73.1592 62.2495 73.1592 62.4537C73.1673 62.7152 73.1673 62.985 73.1673 63.2547C73.1907 64.9048 73.1826 65.0766 73.1426 65.1581ZM72.4885 61.7341C72.4885 61.2274 71.9555 60.8679 71.5602 61.1048C71.0353 61.4152 70.6239 62.5594 70.664 63.5728C70.6721 63.7934 70.7207 64.6109 71.0353 64.6432C71.0997 64.6514 71.1726 64.6268 71.2289 64.5863C71.6971 64.2919 71.9231 63.5646 72.1009 63.0743C72.3593 62.3716 72.4885 61.9301 72.4885 61.7341Z" fill="#1B2536"/>
<path d="M74.3855 65.1254C74.345 65.0356 74.345 64.4145 74.4098 61.9465C74.4422 60.6797 74.4422 60.6556 74.5953 60.5571C74.7726 60.451 74.9828 60.5243 75.0634 60.7125C75.0958 60.7941 75.1039 60.8679 75.0877 61.0392L75.0715 61.268L75.2007 61.0962C75.4591 60.7449 75.8467 60.4505 76.2744 60.3525C76.9122 60.2053 77.3885 60.7203 77.574 61.2762C77.7275 61.7501 77.7113 62.2568 77.7194 62.7471C77.7356 63.7196 77.6789 64.9618 77.6064 65.1254C77.5659 65.2315 77.4286 65.3213 77.3156 65.3213C77.2026 65.3213 77.0653 65.2315 77.0248 65.1171C76.9924 65.0438 76.9924 64.9618 77.0086 64.6432C77.0491 64.0796 77.0973 63.5072 77.0973 62.9353C77.0973 62.4204 77.1054 61.7588 76.8713 61.2844C76.6291 60.7941 76.1771 61.0228 75.8782 61.3254C75.5793 61.628 75.3452 62.1424 75.1436 62.9681C75.063 63.3113 75.0225 63.8508 75.0144 64.6186C75.0144 64.8064 75.0063 65.0028 74.9901 65.052C74.9414 65.2315 74.7722 65.3299 74.5944 65.2971C74.4904 65.2725 74.4422 65.2315 74.3855 65.1254Z" fill="#1B2536"/>
<path d="M81.8451 58.7676C81.7889 60.4427 81.7889 61.0884 81.8046 63.0091C81.837 65.2402 81.837 65.1746 81.6835 65.273C81.5219 65.371 81.3202 65.314 81.2316 65.1504C81.1911 65.0852 81.1753 64.9786 81.1672 64.4641L81.151 63.8595L81.0056 64.1538C80.7229 64.7175 80.4325 65.0688 80.1017 65.2242C79.7627 65.3878 79.3913 65.3386 79.1248 65.0688C78.9069 64.8401 78.7939 64.5211 78.721 64.2108C78.6242 63.7697 78.6242 63.2958 78.6805 62.846C78.7935 61.9716 79.173 60.7458 80.0931 60.419C80.3758 60.3211 80.8359 60.3616 81.07 60.517L81.1262 60.558L81.1424 60.2313C81.1505 60.0513 81.1748 59.4876 81.183 58.9809C81.2073 58.1721 81.2154 58.0413 81.2554 57.9593C81.3202 57.8285 81.4733 57.7469 81.6025 57.7715C81.7074 57.7961 81.8366 57.9187 81.8609 58.0167C81.8694 58.0568 81.8613 58.3917 81.8451 58.7676ZM81.1348 61.7505C81.1348 61.5628 81.0461 61.3336 80.9331 61.2356C80.6184 60.9495 80.2633 60.9659 79.9968 61.2684C79.6578 61.669 79.448 62.1916 79.3346 62.9353C79.2698 63.3928 79.3022 63.8667 79.4314 64.3165C79.4881 64.5371 79.6249 64.7335 79.8671 64.5945C80.1093 64.4473 80.2547 64.1775 80.3758 63.9324C80.5212 63.6544 80.6342 63.3687 80.7472 63.0743C80.9975 62.3958 81.1348 61.9301 81.1348 61.7505Z" fill="#1B2536"/>
<path d="M78.5184 48.7034L78.7322 49.8959L80.3906 51.8335L81.7943 54.3521L81.539 55.7729L79.6254 56.7417L74.7767 55.9666L70.6937 55.2562L68.8435 55.5145L68.7156 55.6439L68.9709 56.2896L68.6517 56.3543L68.1417 56.0313L67.9499 56.1607L67.5673 55.9666L67.312 55.6439L66.8655 55.3209L67.6951 54.6105L69.6407 54.0618L75.3826 55.0301L77.3606 55.6763L79.976 55.7405L80.8692 55.0301L80.6778 53.5451L78.8916 51.4138L78.1259 50.122L77.9422 49.3924L78.5184 48.7034Z" fill="#9BEBF6"/>
<path d="M79.6254 44.5038C79.6254 48.2669 77.9026 50.8652 73.1497 51.3172C69.449 51.669 66.5468 48.5895 66.5468 44.8269C66.5468 41.0643 69.1136 37.7552 72.831 37.7552C76.5485 37.7552 79.6254 40.7408 79.6254 44.5038Z" fill="#9BEBF6"/>
<path d="M77.8472 49.8376C77.8738 49.9442 77.8958 50.0541 77.9278 50.1607C78.071 50.6323 78.3226 51.0443 78.6341 51.417C79.0109 51.8677 79.3908 52.3147 79.7852 52.7508C80.18 53.1873 80.4555 53.7068 80.631 54.2746C80.6887 54.4605 80.7121 54.6551 80.6639 54.8474C80.5991 55.1076 80.464 55.3081 80.1948 55.3988C79.7069 55.5628 79.2054 55.5833 78.6989 55.5569C77.9296 55.5172 77.1765 55.3687 76.4292 55.1896C75.2971 54.9185 74.1689 54.6296 73.03 54.3853C72.2539 54.2186 71.4792 54.0541 70.6887 53.9825C70.0436 53.9242 69.3999 53.936 68.7638 54.0768C68.2587 54.1885 67.7852 54.3767 67.3629 54.6843C67.1775 54.8196 67.0131 54.9768 66.8857 55.1709C66.8758 55.186 66.8668 55.2028 66.8538 55.2147C66.7277 55.3295 66.7489 55.4885 66.9015 55.5646C66.9308 55.5792 66.9596 55.5947 66.9906 55.6038C67.1815 55.6603 67.3179 55.7761 67.4048 55.9597C67.4597 56.0759 67.5452 56.1716 67.6587 56.2368C67.8216 56.3306 67.9729 56.3147 68.0989 56.1798C68.1426 56.1333 68.1615 56.1548 68.1912 56.1857C68.3087 56.3065 68.4442 56.4022 68.5959 56.4733C68.7017 56.5229 68.8124 56.5562 68.9308 56.5389C69.0654 56.5198 69.1312 56.4414 69.1132 56.306C69.0956 56.1762 69.0582 56.0531 68.9673 55.9492C68.7472 55.6982 68.7796 55.5902 69.1019 55.5086C69.5579 55.3928 70.0229 55.396 70.488 55.4175C71.4306 55.4607 72.3552 55.6303 73.2758 55.8294C74.3823 56.0691 75.4722 56.3789 76.5751 56.6332C77.4016 56.8237 78.233 56.9841 79.0865 56.9709C79.6722 56.9618 80.2426 56.8734 80.7737 56.6059C81.1555 56.414 81.4751 56.1479 81.7087 55.7834C81.9932 55.3395 82.0603 54.8579 81.9487 54.3461C81.8487 53.8882 81.6475 53.4731 81.4157 53.0716C81.0254 52.3954 80.5536 51.7784 80.0674 51.1719C79.7771 50.8096 79.4737 50.4573 79.1991 50.0819C79.1221 49.9766 79.0519 49.8659 78.9785 49.7574C78.694 49.3355 78.6809 48.903 78.8979 48.4428C79.3404 47.5045 79.6308 46.5193 79.7573 45.4854C79.7834 45.2721 79.828 45.0611 79.8608 44.8488C79.999 43.9588 79.8766 43.1063 79.4984 42.291C79.1419 41.5232 78.7435 40.7791 78.1975 40.1297C77.5636 39.376 76.8429 38.7235 75.9412 38.3143C74.9873 37.8819 73.9862 37.6362 72.9364 37.6258C71.7011 37.6139 70.5298 37.8923 69.4512 38.5007C68.6535 38.9504 68.0512 39.6153 67.6123 40.4273C66.7651 41.9944 66.364 43.6731 66.3955 45.4585C66.4032 45.8946 66.4729 46.3238 66.576 46.7449C66.6598 47.0871 66.8488 47.3874 67.0055 47.6982C67.2693 48.2218 67.5961 48.7089 67.9166 49.1978C68.2628 49.7264 68.7638 50.0851 69.2977 50.3995C69.8604 50.7303 70.4731 50.934 71.0921 51.1194C71.5864 51.2675 72.0856 51.3961 72.5988 51.4589C72.8648 51.4913 73.1331 51.5045 73.396 51.4567C74.3531 51.283 75.3173 51.1409 76.241 50.816C76.3023 50.7946 76.363 50.7704 76.4252 50.7517C76.9645 50.5918 77.425 50.307 77.7914 49.8722C77.8027 49.8586 77.8175 49.8476 77.8315 49.8362C77.8337 49.8349 77.8387 49.8367 77.8472 49.8376ZM68.2151 48.8679C68.0089 48.5813 67.8252 48.2851 67.6528 47.9821C67.6339 47.9488 67.6263 47.9064 67.6218 47.8672C67.5655 47.3951 67.5515 46.9222 67.6006 46.4482C67.7122 45.366 68.076 44.3635 68.5383 43.392C68.9137 42.6027 69.3373 41.8399 69.774 41.0839C69.8213 41.0024 69.8708 40.9203 69.9009 40.8087C69.7245 40.924 69.6007 41.0653 69.4778 41.2074C69.2856 41.4303 69.1105 41.6663 68.9416 41.9074C68.9227 41.9342 68.9137 42.0026 68.8498 41.942C68.5536 41.6622 68.1876 41.6112 67.8041 41.628C67.7221 41.6317 67.6434 41.6558 67.5758 41.7242C67.624 41.7625 67.6735 41.7738 67.7208 41.7834C68.067 41.8554 68.3969 41.9898 68.7454 42.0545C68.7877 42.0623 68.8368 42.0641 68.7917 42.1338C68.676 42.3143 68.5649 42.4975 68.4546 42.6816C68.4271 42.7271 68.4136 42.7153 68.3749 42.6898C68.2286 42.595 68.1277 42.482 68.1669 42.2901C68.1701 42.2737 68.1615 42.2546 68.1575 42.2368C68.1417 42.1739 68.1084 42.1717 68.0652 42.2113C68.0107 42.2605 67.9702 42.3211 67.9391 42.3872C67.9229 42.4209 67.9054 42.4414 67.8653 42.43C67.6731 42.3758 67.4777 42.3612 67.2769 42.3936C67.3458 42.0773 67.7041 41.1933 67.9234 40.7732C67.9693 40.6848 68.0152 40.6702 68.1093 40.6898C68.4109 40.7522 68.6945 40.872 68.9898 40.9522C69.0533 40.9696 69.1433 41.0197 69.1856 40.9345C69.223 40.8584 69.1478 40.7987 69.0965 40.7517C68.8548 40.5312 68.5775 40.3867 68.247 40.3608C68.2241 40.3589 68.1948 40.3713 68.1804 40.3343C68.3164 40.1033 68.4888 39.8978 68.6715 39.7009C68.7085 39.6613 68.9389 39.6271 68.9691 39.6631C69.015 39.7183 68.9389 39.7638 68.9407 39.819C68.9407 39.8226 68.9389 39.8263 68.9385 39.8294C68.9358 39.8545 68.929 39.8828 68.9511 39.9005C68.975 39.9197 69.0011 39.9037 69.0213 39.8905C69.0785 39.8527 69.1433 39.8203 69.1879 39.7702C69.286 39.6608 69.3905 39.6978 69.5088 39.7328C69.4449 39.808 69.3752 39.8691 69.3432 39.9566C69.3292 39.9944 69.3117 40.0372 69.3387 40.0714C69.3702 40.1106 69.4134 40.0828 69.4481 40.07C69.6007 40.014 69.7542 39.9584 69.8915 39.87C69.9581 39.8272 70.0207 39.8217 70.0959 39.8436C70.2552 39.89 70.4164 39.9292 70.5771 39.9707C70.6167 39.9807 70.659 39.9862 70.6856 39.9475C70.7162 39.9024 70.691 39.8618 70.6595 39.8304C70.6131 39.7848 70.5654 39.7397 70.5123 39.7023C70.2746 39.5346 70.0054 39.443 69.7267 39.3774C69.5242 39.3296 69.318 39.3036 69.1051 39.305C69.1226 39.2525 69.1609 39.2357 69.1901 39.2111C69.4953 38.9545 69.8469 38.7805 70.2021 38.6073C70.4078 38.507 70.5919 38.5763 70.7999 38.6059C70.7072 38.7212 70.6099 38.8114 70.5604 38.9354C70.5456 38.9723 70.5271 39.0174 70.5582 39.0484C70.5861 39.0767 70.628 39.0543 70.6599 39.0407C70.8359 38.9641 71.0034 38.8707 71.1533 38.749C71.2042 38.7075 71.2492 38.6989 71.3109 38.7185C71.431 38.7563 71.5535 38.7882 71.6759 38.8178C71.7291 38.8306 71.788 38.8324 71.8213 38.7759C71.8533 38.7217 71.8276 38.6688 71.7975 38.6223C71.7327 38.5207 71.6359 38.4569 71.5314 38.405C71.4432 38.3617 71.3523 38.3243 71.2537 38.2806C71.7498 38.0855 72.9562 37.983 73.3897 38.096C73.3659 38.1284 73.3276 38.1311 73.2961 38.1457C72.5078 38.5184 71.8758 39.0689 71.4283 39.829C71.3793 39.9124 71.3469 40.0017 71.3217 40.1106C71.4383 40.0541 71.5161 39.9789 71.5945 39.9046C71.8497 39.6627 72.1103 39.4275 72.3863 39.2097C72.4421 39.166 72.4781 39.1619 72.5321 39.2106C72.5943 39.2667 72.6721 39.3004 72.7509 39.3268C72.8257 39.3519 72.8536 39.3168 72.8419 39.2443C72.8302 39.1737 72.7878 39.1186 72.7451 39.0639C72.7271 39.0407 72.6785 39.0252 72.7028 38.9873C72.7253 38.9527 72.7622 38.981 72.7914 38.9901C72.9963 39.0525 73.206 39.0839 73.4185 39.1026C73.4532 39.1058 73.4964 39.1158 73.5162 39.0767C73.5365 39.0361 73.5126 38.9987 73.4878 38.9664C73.4383 38.9012 73.3717 38.8575 73.2992 38.8233C73.2299 38.7905 73.1583 38.7618 73.0777 38.7271C73.41 38.5093 73.7557 38.359 74.1185 38.2441C74.2144 38.2136 74.3053 38.2072 74.4039 38.2323C74.7888 38.3302 75.1652 38.4565 75.5365 38.5964C75.5518 38.6023 75.5721 38.6041 75.5753 38.6292C75.5536 38.6533 75.5226 38.6456 75.496 38.6492C75.2043 38.6861 74.9248 38.7682 74.6547 38.8839C74.5786 38.9163 74.5052 38.9564 74.4341 38.9992C74.3985 39.0206 74.3495 39.0493 74.3634 39.0976C74.3751 39.1373 74.4273 39.1391 74.466 39.1441C74.6106 39.1628 74.7542 39.1487 74.8969 39.13C75.2975 39.0776 75.6927 38.9942 76.0884 38.9158C76.1443 38.9049 76.1915 38.9049 76.2424 38.9372C76.4711 39.083 76.7016 39.2261 76.9194 39.3879C76.9469 39.4084 76.9852 39.4202 76.9951 39.4608C76.9915 39.4631 76.9888 39.4667 76.987 39.4663C76.9654 39.464 76.9442 39.4626 76.923 39.4585C76.1582 39.32 75.4168 39.4134 74.7168 39.7442C73.4095 40.3617 72.2873 41.2234 71.4175 42.3995C71.0097 42.9509 70.6658 43.5396 70.447 44.1972C70.3979 44.3444 70.3651 44.4943 70.3597 44.6528C70.4164 44.5781 70.4654 44.4997 70.51 44.4191C70.9021 43.705 71.3793 43.0525 71.9073 42.4369C71.9438 42.3945 71.9708 42.3608 72.0406 42.3917C72.8284 42.739 73.5603 43.1764 74.2135 43.746C74.9005 44.3448 75.5253 45.0051 76.1213 45.695C76.1884 45.7729 76.2613 45.8458 76.3315 45.921C76.3113 45.7442 76.2419 45.5934 76.1614 45.4476C75.9642 45.0894 75.7288 44.7581 75.4735 44.441C74.6272 43.3879 73.6044 42.5749 72.3408 42.0933C72.2535 42.06 72.267 42.0354 72.3201 41.9807C72.8801 41.4061 73.5113 40.9235 74.1892 40.502C74.2491 40.4651 74.2896 40.4747 74.3445 40.5084C74.6133 40.6752 74.8973 40.8078 75.2106 40.8638C75.2664 40.8739 75.3322 40.8862 75.3641 40.8196C75.3947 40.7558 75.3493 40.7085 75.3115 40.6647C75.2196 40.5581 75.0981 40.4929 74.9783 40.4255C74.8671 40.363 74.747 40.3207 74.6223 40.2728C74.6403 40.255 74.6443 40.2487 74.6502 40.2455C74.6754 40.2314 74.701 40.2186 74.7271 40.2054C75.4123 39.8536 76.1371 39.7319 76.8987 39.8144C77.0491 39.8308 77.1999 39.86 77.3507 39.844C77.4218 39.8363 77.461 39.8595 77.5065 39.9092C78.1515 40.615 78.6337 41.4293 79.055 42.2851C79.0645 42.3047 79.0847 42.3243 79.0717 42.3521C79.0645 42.3494 79.0604 42.3489 79.0582 42.3462C79.0357 42.3179 79.0132 42.2892 78.9911 42.2605C78.5693 41.7137 78.057 41.2808 77.4313 40.9914C77.3349 40.9468 77.2359 40.9094 77.1144 40.9099C77.1382 40.945 77.1517 40.9709 77.1711 40.9914C77.2409 41.0653 77.3097 41.1395 77.384 41.2088C77.9787 41.767 78.5657 42.3325 79.0676 42.9814C79.1095 43.0356 79.1613 43.0821 79.2117 43.129C79.2441 43.1591 79.2851 43.1851 79.3292 43.1705C79.3872 43.1514 79.3944 43.186 79.4084 43.2266C79.5317 43.5829 79.4957 43.9529 79.5047 44.3193C79.5047 44.3216 79.4998 44.3243 79.489 44.3352C79.06 43.6084 78.5256 42.9714 77.8927 42.4232C77.2589 41.8741 76.5778 41.3993 75.7774 41.1254C75.9385 41.3491 76.1663 41.4963 76.372 41.6822C76.1028 41.7861 75.898 41.9712 75.6819 42.1388C75.6536 42.1607 75.6158 42.1903 75.6257 42.2259C75.6378 42.2687 75.6887 42.2678 75.7274 42.2715C76.0308 42.3006 76.391 42.0659 76.4819 41.7775C76.4945 41.7839 76.508 41.788 76.5183 41.7962C76.9046 42.1133 77.2787 42.4446 77.6442 42.7864C77.6915 42.8306 77.6798 42.8625 77.651 42.9076C77.5825 43.0147 77.5168 43.1236 77.4524 43.2334C77.4331 43.2667 77.407 43.3068 77.4385 43.3441C77.4668 43.3778 77.5105 43.3724 77.5501 43.3665C77.6496 43.351 77.7288 43.2954 77.8103 43.2398C77.8697 43.1992 77.8837 43.0803 77.9656 43.1058C78.0295 43.1259 78.075 43.207 78.1286 43.2607C78.1362 43.2685 78.143 43.2771 78.1515 43.284C78.1979 43.3209 78.1885 43.3523 78.1479 43.3892C78.0521 43.4776 77.9584 43.5683 77.8652 43.6595C77.8378 43.6863 77.7946 43.7119 77.8085 43.757C77.8234 43.8048 77.8729 43.8126 77.9157 43.8167C78.075 43.8322 78.2128 43.7725 78.3384 43.68C78.4514 43.5975 78.4478 43.5984 78.5423 43.7082C78.5832 43.7561 78.5774 43.7798 78.5328 43.8212C78.3762 43.9661 78.2209 44.1138 78.0723 44.2673C78.0088 44.333 77.9755 44.3289 77.9134 44.2642C77.1756 43.4945 76.3419 42.8511 75.4132 42.3343C75.1553 42.1908 74.8906 42.0614 74.5786 41.9844C74.6785 42.096 74.7771 42.173 74.877 42.2468C75.3983 42.6314 75.9129 43.0242 76.4081 43.4435C77.172 44.0905 77.9067 44.7668 78.5094 45.577C78.7309 45.8745 78.9227 46.1921 79.1343 46.4961C79.1631 46.5371 79.1473 46.5736 79.1369 46.61C79.087 46.785 79.0357 46.96 78.9821 47.134C78.9551 47.222 78.9222 47.3081 78.8894 47.4024C78.8488 47.3623 78.8484 47.3241 78.8371 47.2908C78.427 46.0887 77.6829 45.1418 76.6795 44.3922C76.5863 44.3225 76.4846 44.2664 76.3675 44.2354C76.4387 44.3421 76.5143 44.4428 76.5953 44.5389C76.9672 44.9809 77.3219 45.4357 77.6492 45.9124C78.0674 46.5212 78.4149 47.1646 78.617 47.8827C78.6418 47.9716 78.6359 48.0422 78.5896 48.1197C78.369 48.4842 78.1187 48.8269 77.8621 49.1655C77.854 49.1764 77.8432 49.1874 77.8229 49.1746C77.8198 49.1418 77.8157 49.1058 77.8121 49.0698C77.7658 48.6054 77.6271 48.1712 77.3939 47.7688C77.339 47.674 77.28 47.5788 77.167 47.5314C77.1468 47.633 77.1684 47.7223 77.1864 47.8112C77.2877 48.3115 77.3786 48.8141 77.4993 49.3099C77.5452 49.4981 77.5083 49.6166 77.3669 49.7305C77.3034 49.782 77.2737 49.7971 77.2184 49.7232C77.0617 49.5141 76.8978 49.3104 76.7353 49.1058C76.711 49.0753 76.6777 49.0306 76.6412 49.0438C76.5953 49.0607 76.6052 49.1195 76.6088 49.1609C76.6322 49.428 76.7385 49.6581 76.91 49.8613C76.9537 49.9133 77.0567 49.9465 77.0324 50.0167C77.0099 50.0805 76.9163 50.1083 76.8474 50.1397C76.4252 50.3307 75.9867 50.4742 75.5433 50.6036C75.4812 50.6218 75.4672 50.6059 75.4551 50.5444C75.4398 50.4665 75.3772 50.4264 75.2998 50.4473C75.2178 50.4692 75.1953 50.5385 75.2277 50.6118C75.2543 50.6715 75.2363 50.6843 75.1832 50.6984C75.0283 50.7399 75.0301 50.7412 74.9603 50.6013C74.9329 50.5462 74.9009 50.4929 74.8662 50.4418C74.8428 50.4072 74.819 50.353 74.7717 50.3667C74.719 50.3817 74.7262 50.4432 74.7222 50.4892C74.7159 50.5585 74.7168 50.6296 74.7393 50.6952C74.7627 50.7636 74.7483 50.7882 74.6758 50.8014C74.3143 50.8675 73.9538 50.9395 73.5927 51.0087C73.261 51.0725 72.9274 51.0848 72.5925 51.037C72.041 50.9577 71.5071 50.8059 70.9764 50.6405C70.2701 50.4204 69.593 50.1365 68.9957 49.685C68.9633 49.6604 68.9191 49.6449 68.9025 49.5902C69.4602 49.8053 70.0355 49.895 70.6212 49.901C72.4574 49.9192 74.2113 49.5218 75.8949 48.7923C76.1069 48.7002 76.309 48.5863 76.4999 48.4542C76.5746 48.4027 76.6471 48.348 76.7011 48.2733C76.7313 48.2318 76.7596 48.1844 76.7245 48.1329C76.6926 48.0864 76.6426 48.0933 76.5962 48.1037C76.4864 48.1283 76.3851 48.1767 76.2816 48.2195C76.0349 48.3216 75.7877 48.4227 75.5419 48.5275C75.4843 48.5521 75.4501 48.5458 75.4055 48.4947C75.2844 48.3553 75.1598 48.2172 75.0099 48.1083C74.95 48.0645 74.8838 47.973 74.8055 48.0377C74.7321 48.0978 74.7767 48.1949 74.8046 48.2728C74.8626 48.435 74.9716 48.5603 75.1224 48.6797C74.8987 48.7494 74.6934 48.8137 74.4881 48.8779C74.4512 48.8893 74.4512 48.8666 74.4435 48.8388C74.3868 48.6273 74.2387 48.4838 74.0812 48.3484C74.0519 48.3229 74.0123 48.2988 73.9722 48.3247C73.9389 48.3466 73.9376 48.3876 73.9407 48.4245C73.9439 48.4605 73.9506 48.497 73.9605 48.5316C74.0109 48.703 74.1163 48.8319 74.2761 48.9322C74.2378 48.9454 74.2122 48.9563 74.1851 48.9636C73.3136 49.2024 72.4291 49.3687 71.5274 49.4339C71.3275 49.4485 71.3271 49.4485 71.2618 49.2589C71.2465 49.2142 71.2334 49.1682 71.2195 49.1231C71.1677 48.9563 71.1164 48.7891 71.0628 48.6223C71.0529 48.5922 71.0439 48.5471 71.0115 48.5448C70.9683 48.5416 70.9606 48.5909 70.9512 48.6232C70.8809 48.8638 70.8845 49.1058 70.9543 49.3455C70.9881 49.4617 70.9908 49.4612 70.8661 49.463C70.1845 49.4735 69.5048 49.4357 68.826 49.3797C68.7656 49.3746 68.7472 49.3509 68.7346 49.2981C68.6792 49.0707 68.6472 48.8401 68.6405 48.6059C68.6247 48.0427 68.7238 47.4949 68.8521 46.9509C68.9745 46.4323 69.1294 45.9238 69.3031 45.4202C69.3418 45.3081 69.3833 45.1951 69.3882 45.0616C69.2604 45.145 69.1802 45.2566 69.1028 45.3696C68.8489 45.7415 68.6657 46.1493 68.5216 46.5754C68.4937 46.6574 68.4649 46.7048 68.3663 46.692C68.306 46.6843 68.2223 46.6884 68.1984 46.7613C68.1728 46.8401 68.2466 46.8821 68.2975 46.9267C68.3137 46.9408 68.3339 46.9495 68.3533 46.96C68.3699 46.9691 68.3884 46.9814 68.3843 47.0001C68.3654 47.0889 68.3533 47.1819 68.3177 47.2635C68.2988 47.3072 68.2317 47.2685 68.1872 47.2762C68.1453 47.2835 68.0922 47.2762 68.0742 47.3236C68.0557 47.3719 68.0944 47.4147 68.1304 47.4307C68.2889 47.5004 68.2718 47.6244 68.2416 47.757C68.2353 47.7852 68.234 47.8148 68.2304 47.8435C68.1894 48.1835 68.1863 48.5243 68.2151 48.8679ZM67.1446 46.8975C66.9857 46.5371 66.8839 46.1644 66.8515 45.7725C66.8241 45.4375 66.8286 45.1026 66.8452 44.7677C66.8569 44.5325 66.8574 44.5325 67.0775 44.4865C67.0915 44.4838 67.1063 44.4824 67.1198 44.477C67.1896 44.4492 67.3111 44.4633 67.3098 44.3726C67.3089 44.2933 67.191 44.2865 67.1198 44.255C67.0469 44.2227 66.9317 44.2705 66.902 44.184C66.8776 44.1124 66.9164 44.0204 66.9222 43.9365C66.9267 43.8727 66.9519 43.8618 67.0131 43.8723C67.1563 43.8969 67.3003 43.8891 67.4422 43.8563C67.48 43.8477 67.5254 43.8376 67.5317 43.7902C67.5371 43.7511 67.5061 43.7228 67.4777 43.7009C67.3575 43.6084 67.2225 43.5487 67.0699 43.5469C67.0032 43.546 66.9798 43.531 66.9956 43.4608C67.0379 43.2726 67.0793 43.0839 67.1135 42.8939C67.1302 42.8019 67.1761 42.7827 67.2621 42.7818C67.5997 42.7791 67.927 42.8511 68.2565 42.909C68.3128 42.919 68.3096 42.9399 68.2871 42.9809C68.2421 43.0639 68.1993 43.1482 68.157 43.2329C67.7352 44.0764 67.4066 44.9522 67.2454 45.8873C67.1878 46.2213 67.1585 46.5576 67.1446 46.8975ZM72.2305 55.1317C71.9334 55.0903 71.6566 55.0515 71.3793 55.0133C71.3473 55.0087 71.3302 54.9864 71.3131 54.9622C71.161 54.7435 70.9597 54.5808 70.7373 54.4418C70.7148 54.4277 70.6797 54.4254 70.677 54.3844C70.948 54.3749 71.2042 54.435 71.4536 54.5362C71.5436 54.5726 71.6372 54.6 71.7309 54.6259C71.7714 54.6373 71.8335 54.6428 71.8393 54.5886C71.8479 54.507 71.8925 54.5389 71.9289 54.5462C72.0982 54.5813 72.2666 54.6209 72.4363 54.6533C72.538 54.6729 72.6262 54.7152 72.7073 54.7804C72.8 54.8551 72.8954 54.9267 72.9909 54.9978C73.0174 55.0174 73.0494 55.0333 73.08 55.0083C73.1102 54.9836 73.0989 54.9495 73.0935 54.9171C73.0872 54.8802 73.0539 54.8497 73.0651 54.8009C73.355 54.8816 73.6391 54.9604 73.9236 55.0392C73.9601 55.0493 73.9848 55.0761 74.0109 55.1012C74.1829 55.2671 74.3571 55.4307 74.5417 55.582C74.5615 55.5979 74.5889 55.6102 74.588 55.6517C74.317 55.5865 74.0514 55.5214 73.7854 55.4589C73.7264 55.4453 73.6805 55.4193 73.6423 55.371C73.5684 55.278 73.473 55.2138 73.3586 55.181C73.31 55.1668 73.2524 55.1459 73.2155 55.1878C73.1741 55.2352 73.2367 55.2703 73.2511 55.3113C73.2529 55.3163 73.2484 55.3231 73.2448 55.3345C73.0512 55.2953 72.8576 55.2548 72.6631 55.2183C72.5965 55.206 72.547 55.1805 72.5042 55.1217C72.4246 55.0119 72.326 54.9208 72.19 54.8848C72.1657 54.8784 72.1369 54.8711 72.1185 54.8921C72.0986 54.9148 72.1148 54.9413 72.1275 54.9627C72.1572 55.0133 72.1878 55.062 72.2305 55.1317ZM68.7661 55.1281C68.6999 55.1764 68.6427 55.2138 68.5905 55.2575C68.5496 55.2921 68.5185 55.36 68.4766 55.366C68.424 55.3733 68.3924 55.2976 68.3465 55.2643C68.2173 55.1705 68.0814 55.1153 67.9225 55.1819C67.9 55.1914 67.8725 55.2047 67.8725 55.2338C67.8725 55.2703 67.9081 55.2639 67.9297 55.2698C68.1268 55.3222 68.2975 55.4206 68.4294 55.5788C68.559 55.7346 68.6517 55.9183 68.7814 56.0746C68.8151 56.1151 68.848 56.1707 68.8061 56.224C68.7634 56.2782 68.6972 56.2769 68.6369 56.265C68.5991 56.2573 68.5631 56.2363 68.5293 56.2163C68.4262 56.1548 68.3357 56.0773 68.2538 55.9889C68.1566 55.8836 68.0935 55.8772 67.9859 55.9707C67.913 56.0345 67.85 56.0217 67.7829 55.9688C67.7068 55.9087 67.6618 55.8248 67.6164 55.7419C67.5308 55.5865 67.4093 55.4744 67.2486 55.4015C67.1725 55.3669 67.0357 55.3641 67.0357 55.2917C67.0357 55.2201 67.1644 55.1814 67.2351 55.1258C67.2783 55.0916 67.3098 55.0857 67.3503 55.1368C67.4012 55.2015 67.4741 55.2361 67.5587 55.2361C67.62 55.2361 67.6767 55.2215 67.6987 55.1564C67.719 55.0971 67.6884 55.0497 67.6456 55.0119C67.6195 54.9887 67.5893 54.9709 67.5443 54.9381C67.6722 54.8916 67.7748 54.7781 67.8937 54.8073C68.1903 54.8797 68.4865 54.9631 68.7661 55.1281ZM78.6602 43.8495C78.7476 43.9593 78.8236 44.0541 78.8984 44.1502C78.9222 44.1808 78.9015 44.2131 78.8934 44.2441C78.8529 44.399 78.8124 44.554 78.7732 44.7094C78.7656 44.7403 78.7489 44.7809 78.7773 44.8019C78.8097 44.8256 78.8466 44.7996 78.8768 44.78C78.9731 44.7176 79.0433 44.6292 79.1009 44.5321C79.1379 44.4701 79.1599 44.4779 79.1986 44.5289C79.2643 44.6155 79.3332 44.7002 79.4061 44.7809C79.4449 44.8233 79.4521 44.8638 79.4431 44.919C79.3967 45.2102 79.3557 45.5027 79.3103 45.7943C79.2941 45.8982 79.2828 46.0049 79.2396 46.1183C79.173 45.9898 79.118 45.8759 79.0559 45.7656C78.8254 45.3551 78.5472 44.9791 78.2398 44.6251C78.1898 44.5676 78.1826 44.538 78.2555 44.4979C78.3316 44.456 78.391 44.3899 78.4455 44.3216C78.5499 44.189 78.6112 44.0345 78.6602 43.8495ZM76.9618 55.7884C77.068 55.8052 77.1598 55.8312 77.2512 55.8312C77.3448 55.8312 77.4137 55.8458 77.4668 55.9347C77.502 55.993 77.578 56.0322 77.6239 55.952C77.6604 55.8882 77.6973 55.8882 77.7527 55.8977C77.8202 55.9091 77.8882 55.9164 77.9557 55.926C77.9881 55.9306 78.021 55.9333 78.0363 55.9702C78.1137 56.1557 78.2258 56.3183 78.3762 56.4674C78.0615 56.4856 77.9742 56.4468 77.7901 56.2318C77.7509 56.1862 77.7189 56.0928 77.6474 56.1288C77.5852 56.1602 77.6104 56.2473 77.6271 56.3101C77.6433 56.3717 77.6235 56.3789 77.5699 56.368C77.4394 56.3407 77.307 56.322 77.1778 56.2905C76.8996 56.2227 76.5926 56.2254 76.3896 55.9661C76.363 55.9319 76.3153 55.8873 76.2699 55.9187C76.2316 55.9451 76.2595 55.9994 76.2654 56.0417C76.2667 56.0513 76.2613 56.0618 76.2573 56.0787C76.1087 56.0417 75.9624 56.0062 75.8165 55.9684C75.7972 55.9634 75.772 55.9511 75.7643 55.9351C75.6783 55.7601 75.5676 55.6006 75.4506 55.4416C75.6491 55.4776 75.8395 55.5245 76.0308 55.5683C76.106 55.5851 76.1726 55.6084 76.2284 55.6685C76.2753 55.7191 76.3356 55.7579 76.4112 55.7127C76.5188 55.6485 76.6755 55.6982 76.7308 55.8121C76.7817 55.9169 76.8339 56.0212 76.919 56.1028C76.9456 56.1279 76.9789 56.1497 77.0162 56.1279C77.0531 56.106 77.0549 56.0663 77.0441 56.0308C77.0216 55.9538 76.9933 55.8795 76.9618 55.7884ZM69.3063 54.4209C69.4827 54.3867 69.6606 54.3767 69.8388 54.3676C69.9054 54.3644 69.9662 54.3749 70.0265 54.4045C70.1886 54.4838 70.3534 54.5571 70.5141 54.6387C70.6806 54.7235 70.8364 54.826 71.0002 54.9691C70.8593 54.96 70.7459 54.9504 70.6325 54.9458C70.4551 54.9385 70.2723 54.9549 70.1346 54.8041C70.1229 54.7913 70.104 54.7854 70.0873 54.7781C70.0328 54.7549 69.9658 54.7011 69.9212 54.7553C69.8834 54.8009 69.9532 54.8483 69.9811 54.8925C69.986 54.9007 69.9869 54.9121 69.9914 54.929C69.6574 54.9426 69.3274 54.9609 69.0065 55.0497C68.979 55.0575 68.9606 55.0534 68.9443 55.0256C68.8521 54.8697 68.6981 54.7959 68.5432 54.7266C68.473 54.6952 68.3987 54.6742 68.306 54.641C68.4104 54.5945 68.4883 54.5781 68.5838 54.6013C68.8921 54.6779 69.2108 54.6829 69.5251 54.7171C69.5755 54.7225 69.6435 54.7266 69.6592 54.6565C69.6736 54.5931 69.6196 54.5599 69.575 54.5293C69.4949 54.4742 69.3986 54.4569 69.3063 54.4209ZM80.1584 56.3625C80.0683 56.3858 80.0017 56.3995 79.9378 56.4209C79.8347 56.455 79.7478 56.4405 79.6564 56.3744C79.5606 56.3047 79.4507 56.255 79.3458 56.199C79.3121 56.1807 79.2689 56.152 79.2364 56.1857C79.2018 56.2217 79.2274 56.2687 79.2454 56.3083C79.2774 56.3789 79.3373 56.4277 79.3967 56.497C79.1793 56.5166 78.9749 56.5166 78.771 56.5065C78.7516 56.5056 78.73 56.492 78.7151 56.4774C78.5594 56.327 78.4225 56.1602 78.2866 55.9656C78.4 55.9725 78.4955 55.9779 78.5909 55.9839C78.7115 55.9912 78.8331 55.9798 78.9429 56.0577C78.9924 56.0928 79.0618 56.1005 79.0955 56.0185C79.1104 55.982 79.1437 55.9916 79.1703 55.9907C79.3287 55.9839 79.4863 55.9711 79.6429 55.9479C79.6758 55.9429 79.706 55.9397 79.7289 55.9738C79.8356 56.1311 79.9729 56.2564 80.1584 56.3625ZM78.3213 49.2521C78.3564 49.5045 78.4446 49.7269 78.5697 49.9319C78.6206 50.0158 78.6368 50.0914 78.6121 50.1876C78.5846 50.2942 78.5675 50.4063 78.6278 50.5371C78.6683 50.4519 78.6994 50.384 78.7323 50.3174C78.7458 50.2906 78.7642 50.2409 78.7971 50.2924C78.8664 50.4018 79.0073 50.4847 78.9357 50.6524C78.9204 50.6879 78.9366 50.7431 78.9848 50.7025C79.0735 50.6278 79.1054 50.6929 79.1487 50.7503C79.1923 50.8082 79.2396 50.8634 79.2846 50.9199C79.3026 50.9422 79.3278 50.9641 79.3197 50.996C79.2779 51.1609 79.2607 51.3295 79.2558 51.5259C79.0253 51.2284 78.8218 50.9467 78.6377 50.651C78.4383 50.3307 78.301 49.9853 78.2078 49.6184C78.1704 49.4708 78.1844 49.3573 78.3213 49.2521ZM79.9553 55.8909C80.0089 55.8741 80.0427 55.8636 80.0769 55.8526C80.302 55.782 80.519 55.6895 80.7008 55.5373C80.803 55.4521 80.8822 55.3915 81.0263 55.4494C81.142 55.4958 81.2716 55.4507 81.4116 55.396C81.3419 55.5359 81.2676 55.6375 81.1852 55.7337C81.1573 55.7665 81.1244 55.7661 81.0875 55.7615C80.984 55.7496 80.8804 55.7387 80.7764 55.7301C80.7458 55.7273 80.7062 55.7182 80.6878 55.7519C80.6675 55.7888 80.6945 55.8216 80.7148 55.8513C80.7584 55.9155 80.8282 55.9479 80.8971 55.9912C80.8291 56.0572 80.7512 56.0896 80.6869 56.1397C80.5568 56.2413 80.428 56.2254 80.2957 56.1511C80.1759 56.0837 80.0719 55.9966 79.9553 55.8909ZM79.5952 51.3241C79.6078 51.3313 79.6195 51.3341 79.6258 51.3418C79.8797 51.6535 80.1291 51.9698 80.3654 52.2956C80.3799 52.3152 80.3988 52.3434 80.3943 52.363C80.365 52.4947 80.3299 52.625 80.2939 52.7681C80.1764 52.6392 80.0629 52.5339 80.1161 52.3566C80.1219 52.337 80.1156 52.3133 80.112 52.2915C80.103 52.2313 80.1125 52.1443 80.0521 52.1274C79.9842 52.1083 79.9617 52.194 79.9333 52.2459C79.9126 52.2837 79.8928 52.2983 79.864 52.2573C79.7663 52.1192 79.5997 52.0267 79.5993 51.8244C79.5993 51.7752 79.5804 51.7064 79.4971 51.7652C79.4327 51.8103 79.4269 51.7282 79.3958 51.7041C79.3737 51.6868 79.3409 51.6581 79.3823 51.6239C79.4804 51.5446 79.5299 51.4289 79.5952 51.3241ZM80.9822 55.2343C81.0033 55.1864 81.0177 55.1532 81.0321 55.1204C81.0673 55.0411 81.137 54.9595 81.1316 54.8829C81.1172 54.6879 81.1397 54.4901 81.0943 54.2965C81.0591 54.147 81.0632 54.1397 81.2122 54.0978C81.2721 54.0809 81.3261 53.988 81.386 54.0477C81.4296 54.0914 81.435 54.1744 81.458 54.2395C81.4729 54.2814 81.4607 54.3165 81.4391 54.353C81.4058 54.409 81.372 54.466 81.3464 54.5257C81.3229 54.5799 81.2514 54.6401 81.2977 54.6911C81.3531 54.7517 81.4251 54.6934 81.4819 54.6587C81.5269 54.6314 81.5444 54.635 81.5476 54.6906C81.5548 54.8077 81.5516 54.9239 81.5314 55.0392C81.5255 55.073 81.5152 55.1012 81.4787 55.1149C81.3234 55.1737 81.1667 55.2242 80.9822 55.2343ZM80.6045 52.6323C80.6639 52.7207 80.7062 52.7882 80.7535 52.852C80.8674 53.0064 80.9727 53.1595 80.8453 53.361C80.826 53.3915 80.803 53.4521 80.8494 53.4785C80.884 53.4981 80.9223 53.4594 80.9529 53.4343C81.0592 53.3487 81.0592 53.3482 81.1262 53.4735C81.133 53.4863 81.1397 53.499 81.1465 53.5122C81.2725 53.7524 81.2721 53.7515 81.0641 53.9228C81.0245 53.9552 81.0038 53.967 80.9817 53.9064C80.8692 53.5997 80.7035 53.3227 80.5113 53.0611C80.4892 53.031 80.4721 53.0042 80.4883 52.9622C80.5275 52.8615 80.5608 52.7585 80.6045 52.6323ZM75.4866 55.8823C75.3007 55.8349 75.1372 55.7929 74.9743 55.7519C74.945 55.7446 74.9329 55.7282 74.9338 55.6977C74.936 55.617 74.8829 55.5642 74.8365 55.509C74.7375 55.391 74.6169 55.2976 74.4787 55.201C74.8446 55.2192 75.185 55.4494 75.4866 55.8823Z" fill="#1B2536"/>
<path d="M71.6408 46.2386C71.0327 46.3986 70.4146 46.4323 69.801 46.59C69.8722 46.6761 69.9419 46.6952 70.0099 46.7144C70.2516 46.7827 70.5001 46.7946 70.7491 46.7909C71.4756 46.7813 72.1689 46.6109 72.8396 46.3366C72.9243 46.302 72.9675 46.2874 72.9585 46.4086C72.9513 46.5025 72.9715 46.5977 73.0008 46.6884C73.0107 46.7189 73.0211 46.7581 73.058 46.7599C73.0931 46.7618 73.1142 46.7285 73.1277 46.6989C73.1917 46.5567 73.22 46.4072 73.1975 46.2514C73.1908 46.2058 73.1939 46.1776 73.2398 46.1552C73.2907 46.1306 73.315 46.132 73.3294 46.1944C73.3699 46.369 73.4379 46.5344 73.5167 46.6948C73.5374 46.7362 73.559 46.7918 73.6126 46.7868C73.6724 46.7814 73.6841 46.7189 73.694 46.6702C73.7368 46.456 73.708 46.2477 73.618 46.0513C73.5874 45.9853 73.6013 45.9593 73.6594 45.9256C73.8782 45.7984 74.0897 45.659 74.2901 45.5036C74.3585 45.4503 74.3873 45.459 74.422 45.5351C74.453 45.6043 74.4994 45.6672 74.557 45.7178C74.5804 45.7383 74.6074 45.7697 74.6416 45.7506C74.67 45.7351 74.6605 45.6977 74.6587 45.6704C74.6515 45.5647 74.6367 45.4585 74.5944 45.3614C74.5687 45.3031 74.5818 45.2708 74.6272 45.232C74.7375 45.1377 74.8388 45.0338 74.9239 44.9153C74.9518 44.8761 74.9797 44.8324 74.9414 44.7864C74.9072 44.7449 74.8613 44.7622 74.8213 44.7786C74.6403 44.8524 74.4715 44.9509 74.3049 45.0529C73.8151 45.3537 73.3294 45.6613 72.796 45.8814C72.5322 45.9903 72.2625 46.0819 71.9884 46.1598C71.9303 46.1762 71.9028 46.1771 71.8862 46.1038C71.8542 45.9607 71.7628 45.8495 71.6598 45.7506C71.585 45.6786 71.5342 45.6973 71.5121 45.8039C71.477 45.967 71.527 46.1069 71.6408 46.2386Z" fill="#1B2536"/>
<path d="M69.3527 45.4416C69.517 45.6016 69.7119 45.6467 69.9055 45.685C70.3817 45.7793 70.8594 45.762 71.3352 45.68C72.3269 45.5095 73.2524 45.1564 74.1158 44.6351C74.277 44.538 74.4323 44.4309 74.5597 44.2892C74.5948 44.2505 74.6461 44.2067 74.6065 44.1475C74.571 44.0942 74.5138 44.122 74.467 44.1343C74.2883 44.1808 74.1203 44.2573 73.9533 44.3352C73.5603 44.5184 73.1669 44.6984 72.76 44.8483C72.6861 44.8757 72.6542 44.8647 72.6465 44.7864C72.6447 44.7686 72.638 44.7508 72.6308 44.734C72.6087 44.6816 72.6028 44.6027 72.5371 44.6004C72.4624 44.5977 72.4543 44.6797 72.4345 44.7362C72.4237 44.7668 72.4228 44.8005 72.4147 44.8324C72.4039 44.8775 72.4385 44.9413 72.394 44.9655C72.3287 45.0015 72.2531 45.0197 72.1797 45.0365C72.136 45.0466 72.1329 44.9987 72.1225 44.9705C72.0757 44.8442 72.0325 44.7162 71.9852 44.5904C71.969 44.5476 71.9591 44.487 71.9046 44.4852C71.8457 44.4833 71.8263 44.5439 71.807 44.5891C71.7475 44.7317 71.73 44.8839 71.7871 45.0265C71.8313 45.1372 71.7858 45.15 71.6989 45.1691C71.0277 45.3172 70.3489 45.3924 69.6619 45.3974C69.5633 45.3988 69.4625 45.3924 69.3527 45.4416Z" fill="#1B2536"/>
<path d="M67.9117 46.4783C68.0364 46.3539 68.1062 46.2017 68.1768 46.0509C68.6599 45.0197 69.1303 43.9816 69.7164 43.0042C70.0342 42.4747 70.3642 41.9525 70.686 41.4253C70.7504 41.32 70.8058 41.2088 70.858 41.0972C70.8828 41.0443 70.9327 40.9741 70.872 40.9276C70.8071 40.878 70.7612 40.9545 70.7203 40.9933C70.4497 41.2475 70.2237 41.5405 70.0063 41.8408C69.9806 41.8759 69.9505 41.9087 69.9311 41.9475C69.8631 42.0833 69.7785 42.1584 69.6147 42.0887C69.5507 42.0618 69.4454 42.0495 69.4098 42.1297C69.3702 42.2186 69.4571 42.2824 69.5228 42.317C69.6354 42.3767 69.6097 42.4278 69.5534 42.5152C68.9178 43.5009 68.4024 44.5444 68.0773 45.6786C68.0161 45.8923 67.959 46.1069 67.9261 46.3275C67.9175 46.3772 67.9157 46.4277 67.9117 46.4783Z" fill="#1B2536"/>
<path d="M69.2837 47.9721C69.3891 47.9967 69.4935 48.0245 69.5993 48.045C69.6533 48.0554 69.6862 48.0755 69.6817 48.1361C69.6812 48.1397 69.6821 48.1434 69.683 48.147C69.6979 48.2213 69.6988 48.322 69.7848 48.333C69.8617 48.3425 69.8784 48.2432 69.9041 48.1835C69.9315 48.1192 69.9635 48.0942 70.0337 48.1065C70.1147 48.1206 70.2187 48.0946 70.2745 48.1375C70.3286 48.1789 70.2768 48.2869 70.289 48.3662C70.3047 48.4678 70.3196 48.5685 70.3826 48.6538C70.4024 48.6802 70.4263 48.7075 70.4614 48.7034C70.5032 48.6989 70.5014 48.6565 70.5082 48.6269C70.541 48.4888 70.5766 48.3507 70.6 48.2108C70.6117 48.1411 70.6392 48.1229 70.7045 48.1211C71.083 48.1101 71.4589 48.0687 71.8308 47.9967C72.0153 47.9611 72.1958 47.9114 72.3638 47.823C72.4101 47.7989 72.4763 47.7798 72.4668 47.7123C72.456 47.6376 72.3822 47.6421 72.3277 47.6348C72.145 47.6093 71.9609 47.6171 71.7776 47.6308C71.21 47.6736 70.6414 47.7009 70.0724 47.6781C69.7677 47.6658 69.467 47.6991 69.1644 47.7132C69.0947 47.7164 68.9871 47.7164 68.9758 47.7848C68.9646 47.8531 69.0677 47.8818 69.132 47.911C69.1811 47.9333 69.2333 47.9479 69.2842 47.9661C69.2846 47.968 69.2842 47.9702 69.2837 47.9721Z" fill="#1B2536"/>
<path d="M72.0131 50.4013C72.1531 50.5111 72.3057 50.5407 72.4583 50.5603C73.2065 50.6569 73.9376 50.564 74.6578 50.3544C74.9176 50.2787 75.1728 50.189 75.415 50.0655C75.5149 50.0144 75.6135 49.9597 75.6847 49.8691C75.7265 49.8153 75.7535 49.7538 75.7126 49.6877C75.6739 49.6248 75.6104 49.6271 75.5483 49.6394C75.5163 49.6453 75.4848 49.6535 75.4546 49.6649C74.4706 50.0349 73.4406 50.1826 72.4075 50.3161C72.2801 50.3329 72.15 50.3402 72.0131 50.4013Z" fill="#1B2536"/>
<path d="M76.0911 46.3717C76.1064 46.322 76.133 46.2582 76.0776 46.2081C76.0241 46.1598 75.9682 46.1981 75.9178 46.2241C75.8634 46.2519 75.8084 46.281 75.7594 46.3175C75.307 46.6533 74.8064 46.9017 74.3031 47.145C74.1442 47.222 73.9848 47.299 73.8376 47.3979C73.8084 47.4175 73.7633 47.4389 73.7696 47.4754C73.7773 47.52 73.8309 47.5177 73.8673 47.525C73.9637 47.5451 74.0613 47.5401 74.1572 47.5255C74.8329 47.4234 75.4172 47.1327 75.9075 46.6501C75.9849 46.5736 76.0511 46.487 76.0911 46.3717Z" fill="#1B2536"/>
<path d="M72.1198 43.855C72.1891 43.9151 72.2643 43.9297 72.3386 43.937C72.714 43.9721 73.0782 43.9238 73.4244 43.767C73.5167 43.7251 73.6036 43.6727 73.6652 43.5879C73.699 43.5414 73.7156 43.4895 73.685 43.4353C73.6526 43.3774 73.5968 43.3756 73.5423 43.3892C73.4028 43.4252 73.2637 43.4622 73.1259 43.5045C72.854 43.5879 72.583 43.6754 72.312 43.7615C72.2477 43.7811 72.1828 43.8026 72.1198 43.855Z" fill="#1B2536"/>
<path d="M71.7682 40.77C71.743 40.862 71.6908 40.96 71.7542 41.0119C71.8195 41.0652 71.8906 40.9782 71.9478 40.9349C72.2152 40.7317 72.4732 40.5166 72.7181 40.286C72.7676 40.2396 72.8486 40.1871 72.8067 40.106C72.7631 40.0213 72.6708 40.0509 72.6019 40.0723C72.2242 40.1894 71.9316 40.4132 71.7682 40.77Z" fill="#1B2536"/>
<path d="M75.5973 43.1823C75.5482 43.1678 75.4983 43.1637 75.4483 43.1691C75.2043 43.1965 74.9887 43.2812 74.8347 43.4863C74.8041 43.5268 74.7722 43.5774 74.8077 43.6253C74.8379 43.6658 74.8883 43.6412 74.9288 43.6312C75.1377 43.5788 75.3434 43.515 75.5464 43.4416C75.5734 43.4321 75.5996 43.4188 75.6239 43.4038C75.6693 43.3751 75.6995 43.335 75.6909 43.2776C75.6824 43.2252 75.6432 43.1997 75.5973 43.1823Z" fill="#1B2536"/>
<path d="M74.5858 42.2901C74.3454 42.2063 74.0227 42.3184 73.9011 42.5207C73.8719 42.5695 73.8336 42.626 73.875 42.6825C73.9115 42.7326 73.9691 42.7053 74.0155 42.6925C74.2032 42.641 74.3904 42.5881 74.5768 42.5316C74.6344 42.5143 74.7038 42.4947 74.7006 42.4154C74.6975 42.3375 74.6295 42.3129 74.5858 42.2901Z" fill="#1B2536"/>
<path d="M76.0682 40.0268C75.9561 39.9885 75.8674 39.9598 75.7724 39.9607C75.7112 39.9616 75.6878 39.9894 75.7323 40.0386C75.9282 40.2555 76.1456 40.4428 76.4314 40.5271C76.4769 40.5403 76.5278 40.5458 76.5611 40.5025C76.5989 40.4533 76.5719 40.4036 76.544 40.3612C76.4242 40.179 76.2361 40.0969 76.0682 40.0268Z" fill="#1B2536"/>
<path d="M73.631 39.551C73.7967 39.5747 73.9776 39.5674 74.1446 39.4704C74.2257 39.4234 74.2923 39.3592 74.2621 39.2498C74.2396 39.1678 74.1473 39.1322 74.0244 39.1568C73.8502 39.1919 73.7035 39.2831 73.5747 39.4025C73.4991 39.4726 73.5135 39.5164 73.631 39.551Z" fill="#1B2536"/>
<path d="M73.1038 47.7228C73.2065 47.7524 73.3222 47.7479 73.4297 47.6822C73.4923 47.644 73.5315 47.5884 73.5207 47.5109C73.5103 47.4384 73.4604 47.3988 73.3955 47.3756C73.2587 47.3263 73.0638 47.3952 72.9863 47.52C72.931 47.6102 72.9647 47.6763 73.1038 47.7228Z" fill="#1B2536"/>
<path d="M70.4272 42.6652C70.42 42.6857 70.411 42.7057 70.406 42.7271C70.3993 42.7586 70.3858 42.795 70.4146 42.8187C70.4393 42.8392 70.4713 42.8215 70.4961 42.8087C70.6442 42.7317 70.7837 42.6433 70.8819 42.502C70.9228 42.4432 70.9534 42.3758 70.8967 42.3125C70.8368 42.2455 70.763 42.2714 70.6995 42.3097C70.5636 42.3913 70.4884 42.5239 70.4272 42.6652Z" fill="#1B2536"/>
<path d="M69.6151 44.2755C69.6128 44.2897 69.6025 44.322 69.6029 44.3539C69.6038 44.4355 69.5836 44.5389 69.6785 44.5727C69.769 44.605 69.8271 44.5212 69.882 44.4596C69.9032 44.4359 69.9194 44.4059 69.932 44.3763C69.9797 44.2646 69.9473 44.1502 69.8586 44.112C69.7672 44.0728 69.6628 44.137 69.6151 44.2755Z" fill="#1B2536"/>
<path d="M71.2577 44.1074C71.4099 44.1238 71.562 44.1174 71.6903 44.0058C71.7209 43.9789 71.7462 43.9461 71.7349 43.9014C71.7218 43.8504 71.6782 43.8381 71.6345 43.8331C71.4729 43.8144 71.3388 43.8809 71.2217 43.9839C71.1632 44.0349 71.1875 44.0787 71.2577 44.1074Z" fill="#1B2536"/>
<path d="M73.9115 41.4175C73.9011 41.4161 73.866 41.407 73.8309 41.4079C73.7327 41.4107 73.6936 41.4767 73.7426 41.5615C73.7917 41.6472 73.866 41.7018 73.965 41.7169C74.0163 41.7246 74.069 41.7214 74.1001 41.6727C74.1347 41.6185 74.1077 41.5679 74.0753 41.5223C74.0406 41.4731 73.992 41.443 73.9115 41.4175Z" fill="#1B2536"/>
<path d="M74.6556 43.1678C74.7582 43.181 74.8658 43.1814 74.9626 43.1195C75.0468 43.0657 75.0418 42.9914 74.9536 42.944C74.8482 42.8875 74.6664 42.9372 74.6074 43.0397C74.5741 43.0976 74.5768 43.1441 74.6556 43.1678Z" fill="#1B2536"/>
<path d="M76.7623 42.7002C76.7741 42.6601 76.7759 42.6214 76.7475 42.5868C76.7182 42.5508 76.6782 42.549 76.639 42.5608C76.5238 42.5963 76.4585 42.687 76.4058 42.7886C76.3869 42.8256 76.4094 42.8492 76.4463 42.8611C76.5422 42.8921 76.7277 42.7982 76.7623 42.7002Z" fill="#1B2536"/>
<path d="M73.6747 48.9873C73.7535 49.0151 73.803 48.9732 73.7881 48.8903C73.7715 48.7973 73.604 48.6374 73.5113 48.6228C73.4739 48.6169 73.4591 48.6287 73.4582 48.667C73.4559 48.7581 73.5892 48.9568 73.6747 48.9873Z" fill="#1B2536"/>
<path d="M71.3527 50.5462C71.4391 50.5754 71.5337 50.5339 71.5539 50.4537C71.5755 50.3676 71.5341 50.3138 71.4558 50.2874C71.373 50.2591 71.2748 50.3047 71.251 50.3799C71.2298 50.4469 71.2744 50.5198 71.3527 50.5462Z" fill="#1B2536"/>
<path d="M77.1796 46.8985C77.1922 46.8533 77.2039 46.8 77.1868 46.7458C77.167 46.6843 77.127 46.6442 77.0594 46.6542C76.9919 46.6642 76.9626 46.7144 76.9626 46.7786C76.9626 46.8688 77.0104 46.9376 77.077 46.991C77.1161 47.0233 77.1477 46.9951 77.1796 46.8985Z" fill="#1B2536"/>
<path d="M74.6794 47.7825C74.6736 47.8221 74.6866 47.8549 74.7231 47.8723C74.7537 47.8868 74.7821 47.8773 74.7938 47.8449C74.8082 47.8034 74.7857 47.7738 74.7506 47.7565C74.7213 47.7428 74.6943 47.7469 74.6794 47.7825Z" fill="#1B2536"/>
</g>
<defs>
<clipPath id="clip0_5_2269">
<rect width="82" height="73" fill="white"/>
</clipPath>
</defs>
</svg>
