<svg width="21" height="21" viewBox="0 0 21 21" fill="none" xmlns="http://www.w3.org/2000/svg">
<path d="M11.6049 10.5L20.2712 1.83372C20.5763 1.5286 20.5763 1.03392 20.2712 0.728838C19.966 0.42376 19.4714 0.423721 19.1663 0.728838L10.5 9.39516L1.83372 0.728838C1.5286 0.423721 1.03391 0.423721 0.728837 0.728838C0.42376 1.03395 0.423721 1.52864 0.728837 1.83372L9.3951 10.5L0.728837 19.1663C0.423721 19.4714 0.423721 19.9661 0.728837 20.2712C0.881376 20.4237 1.08134 20.5 1.2813 20.5C1.48126 20.5 1.68118 20.4237 1.83376 20.2712L10.5 11.6049L19.1662 20.2712C19.3188 20.4237 19.5187 20.5 19.7187 20.5C19.9187 20.5 20.1186 20.4237 20.2712 20.2712C20.5763 19.9661 20.5763 19.4714 20.2712 19.1663L11.6049 10.5Z" fill="#1B2536"/>
</svg>
