<svg width="21" height="20" viewBox="0 0 21 20" fill="none" xmlns="http://www.w3.org/2000/svg">
<path fill-rule="evenodd" clip-rule="evenodd" d="M14.6406 0H6.35938C3.12852 0 0.5 2.62852 0.5 5.85938V14.1406C0.5 17.3715 3.12852 20 6.35938 20H14.6406C17.8715 20 20.5 17.3715 20.5 14.1406V5.85938C20.5 2.62852 17.8715 0 14.6406 0ZM19.7188 14.1406C19.7188 16.9407 17.4407 19.2188 14.6406 19.2188H6.35938C3.5593 19.2188 1.28125 16.9407 1.28125 14.1406V5.85938C1.28125 3.0593 3.5593 0.78125 6.35938 0.78125H14.6406C17.4407 0.78125 19.7188 3.0593 19.7188 5.85938V14.1406ZM14.6406 1.71876H6.35938C4.07622 1.71876 2.21876 3.57622 2.21876 5.85938V14.1406C2.21876 16.4238 4.07622 18.2813 6.35938 18.2813H8.7422C8.95794 18.2813 9.13282 18.1064 9.13282 17.8906C9.13282 17.6749 8.95794 17.5 8.7422 17.5H6.35938C4.50704 17.5 3.00001 15.993 3.00001 14.1406V5.85938C3.00001 4.00704 4.50704 2.50001 6.35938 2.50001H14.6406C16.493 2.50001 18 4.00704 18 5.85938V14.1406C18 15.993 16.493 17.5 14.6406 17.5H12.2839C12.0681 17.5 11.8932 17.6749 11.8932 17.8906C11.8932 18.1064 12.0681 18.2813 12.2839 18.2813H14.6406C16.9238 18.2813 18.7813 16.4238 18.7813 14.1406V5.85938C18.7813 3.57622 16.9238 1.71876 14.6406 1.71876ZM10.5 17.5C10.6027 17.5 10.7035 17.5418 10.7762 17.6144C10.8488 17.6871 10.8906 17.7879 10.8906 17.8906C10.8906 17.9933 10.8488 18.0941 10.7762 18.1668C10.7035 18.2394 10.6027 18.2812 10.5 18.2812C10.3973 18.2812 10.2965 18.2394 10.2238 18.1668C10.1512 18.0941 10.1094 17.9933 10.1094 17.8906C10.1094 17.7879 10.1512 17.6871 10.2238 17.6144C10.2965 17.5418 10.3973 17.5 10.5 17.5ZM7.36836 6.08242C7.22082 5.925 6.97367 5.91695 6.81621 6.06441L6.79891 6.0807C6.64199 6.22875 6.6348 6.47598 6.78289 6.63289C6.85973 6.71434 6.96328 6.75543 7.06707 6.75543C7.16324 6.75543 7.25961 6.72012 7.33508 6.64891L7.35035 6.63457C7.50777 6.48707 7.51586 6.23985 7.36836 6.08242ZM8.03058 5.20706C8.78812 4.81605 9.64202 4.60937 10.5 4.60937C13.4724 4.60937 15.8906 7.02761 15.8906 9.99999C15.8906 12.9724 13.4724 15.3906 10.5 15.3906C7.52761 15.3906 5.10937 12.9724 5.10937 9.99999C5.10937 9.06737 5.35144 8.14812 5.80941 7.34163C5.91597 7.15401 6.15437 7.08835 6.34198 7.19483C6.5296 7.3014 6.5953 7.53983 6.48878 7.72741C6.09745 8.41651 5.89062 9.20237 5.89062 9.99999C5.89062 12.5416 7.95839 14.6094 10.5 14.6094C13.0416 14.6094 15.1094 12.5416 15.1094 9.99999C15.1094 7.45839 13.0416 5.39062 10.5 5.39062C9.75566 5.39062 9.04538 5.56241 8.38894 5.90128C8.19726 6.00019 7.96163 5.92503 7.86265 5.73335C7.7637 5.54163 7.8389 5.30601 8.03058 5.20706ZM10.5 6.48437C8.56148 6.48437 6.98437 8.06148 6.98437 9.99999C6.98437 11.9385 8.56148 13.5156 10.5 13.5156C12.4385 13.5156 14.0156 11.9385 14.0156 9.99999C14.0156 8.06148 12.4385 6.48437 10.5 6.48437ZM10.5 12.7344C8.99226 12.7344 7.76562 11.5077 7.76562 9.99999C7.76562 8.49226 8.99226 7.26562 10.5 7.26562C12.0077 7.26562 13.2344 8.49226 13.2344 9.99999C13.2344 11.5077 12.0077 12.7344 10.5 12.7344ZM14.1426 4.87306C14.1426 4.05458 14.8085 3.38868 15.627 3.38868C16.4454 3.38868 17.1113 4.05458 17.1113 4.87306C17.1113 5.69153 16.4454 6.35743 15.627 6.35743C14.8085 6.35743 14.1426 5.69153 14.1426 4.87306ZM14.9238 4.87306C14.9238 5.26075 15.2393 5.57618 15.627 5.57618C16.0147 5.57618 16.3301 5.26075 16.3301 4.87306C16.3301 4.48536 16.0147 4.16993 15.627 4.16993C15.2393 4.16993 14.9238 4.48536 14.9238 4.87306Z" fill="#1B2536"/>
</svg>
