<svg width="24" height="24" viewBox="0 0 24 24" fill="none" xmlns="http://www.w3.org/2000/svg">
<path d="M14.0625 9.375C14.0625 9.11625 14.2725 8.90625 14.5313 8.90625C14.79 8.90625 15 9.11625 15 9.375C15 9.63375 14.79 9.84375 14.5313 9.84375C14.2725 9.84375 14.0625 9.63375 14.0625 9.375Z" fill="#49556B"/>
<path d="M12.5955 4.76531C13.5216 5.41402 14.2244 6.31223 14.628 7.3628C14.7209 7.60449 14.6003 7.87566 14.3586 7.96852C14.3033 7.98975 14.2465 7.99983 14.1906 7.99983C14.0022 7.99983 13.8246 7.88545 13.7529 7.69908C13.0608 5.89772 11.3015 4.6875 9.375 4.6875C9.11616 4.6875 8.90625 4.47759 8.90625 4.21875C8.90625 3.95991 9.11616 3.75 9.375 3.75C10.5338 3.75 11.6475 4.10109 12.5955 4.76531Z" fill="#49556B"/>
<path fill-rule="evenodd" clip-rule="evenodd" d="M9.375 1.875C5.23945 1.875 1.875 5.23945 1.875 9.375C1.875 13.5105 5.23945 16.875 9.375 16.875C13.5105 16.875 16.875 13.5105 16.875 9.375C16.875 5.23945 13.5105 1.875 9.375 1.875ZM9.375 15.9375C5.75644 15.9375 2.8125 12.9936 2.8125 9.375C2.8125 5.75644 5.75644 2.8125 9.375 2.8125C12.9936 2.8125 15.9375 5.75644 15.9375 9.375C15.9375 12.9936 12.9936 15.9375 9.375 15.9375Z" fill="#49556B"/>
<path fill-rule="evenodd" clip-rule="evenodd" d="M17.1938 14.5425L23.4507 20.7993C23.8049 21.1532 24 21.624 24 22.125C24 22.626 23.8049 23.0968 23.4505 23.4508C23.0964 23.8049 22.6257 24 22.125 24C21.6243 24 21.1536 23.8049 20.7993 23.4507L14.5425 17.1938C13.0072 18.213 11.2292 18.75 9.375 18.75C4.20563 18.75 0 14.5444 0 9.375C0 4.20563 4.20563 0 9.375 0C14.5444 0 18.75 4.20563 18.75 9.375C18.75 11.2291 18.2131 13.0071 17.1938 14.5425ZM14.322 16.206C15.0464 15.6802 15.6802 15.0463 16.206 14.322C17.257 12.875 17.8125 11.1645 17.8125 9.375C17.8125 4.72256 14.0274 0.9375 9.375 0.9375C4.72256 0.9375 0.9375 4.72256 0.9375 9.375C0.9375 14.0274 4.72256 17.8125 9.375 17.8125C11.1645 17.8125 12.8751 17.2569 14.322 16.206ZM16.6309 15.3054C16.2341 15.7905 15.7906 16.234 15.3054 16.6309L16.6353 17.9608C17.1127 17.5564 17.5564 17.1127 17.9608 16.6353L16.6309 15.3054ZM22.125 23.0625C22.3752 23.0625 22.6106 22.965 22.7878 22.7878C22.965 22.6107 23.0625 22.3754 23.0625 22.125C23.0625 21.8746 22.965 21.6393 22.7879 21.4624L18.6255 17.3C18.2181 17.7747 17.7747 18.2181 17.3 18.6255L21.4622 22.7878C21.6394 22.965 21.8748 23.0625 22.125 23.0625Z" fill="#49556B"/>
</svg>
