<svg width="21" height="20" viewBox="0 0 21 20" fill="none" xmlns="http://www.w3.org/2000/svg">
<path d="M17.5391 2.90161C15.6679 1.03058 13.18 0 10.5338 0C8.45248 0 6.46044 0.638428 4.77313 1.84647C4.59765 1.97205 4.55721 2.21603 4.68279 2.39151C4.80853 2.56699 5.05252 2.60727 5.22784 2.48169C6.78179 1.36932 8.61651 0.78125 10.5338 0.78125C15.5657 0.78125 19.6594 4.87503 19.6594 9.90707C19.6594 14.939 15.5657 19.0327 10.5338 19.0327C9.00088 19.0327 7.48492 18.6453 6.14977 17.9123C6.06112 17.8638 5.95721 17.8514 5.85986 17.8777L1.51141 19.0529L2.69702 14.8216C2.7257 14.7194 2.71151 14.61 2.6578 14.5186C1.84008 13.1252 1.40795 11.5306 1.40795 9.90707C1.40795 7.98965 1.99603 6.15494 3.10839 4.60114C3.23397 4.42581 3.19354 4.18182 3.01821 4.05624C2.84274 3.93066 2.59875 3.97095 2.47317 4.14642C1.26513 5.83359 0.626703 7.82562 0.626703 9.90707C0.626703 11.6135 1.06661 13.2906 1.90051 14.7688L0.573603 19.5039C0.535608 19.6393 0.57345 19.7845 0.672175 19.8843C0.746637 19.9593 0.846888 20 0.949732 20C0.983759 20 1.01794 19.9956 1.05166 19.9864L5.91357 18.6725C7.32913 19.4197 8.92306 19.814 10.5336 19.814C13.18 19.814 15.6679 18.7836 17.5389 16.9122C19.4101 15.0412 20.4407 12.5533 20.4407 9.90692C20.4407 7.26074 19.4103 4.77295 17.5391 2.90161Z" fill="#1B2536"/>
<path d="M16.9368 14.6422C17.1163 14.762 17.3589 14.7136 17.4787 14.5341C18.3942 13.1624 18.8782 11.5623 18.8782 9.90692C18.8782 7.67792 18.0103 5.58228 16.4344 4.00635C14.8584 2.43042 12.7629 1.5625 10.5338 1.5625C8.30462 1.5625 6.20898 2.43042 4.63305 4.00635C3.05712 5.58228 2.1892 7.67792 2.1892 9.90707C2.1892 11.3918 2.58425 12.8496 3.33163 14.1231L3.5837 14.5528L2.82 17.2783C2.78201 17.4135 2.8197 17.5587 2.91857 17.6585C3.01745 17.7583 3.16241 17.7974 3.29806 17.7608L6.11178 17.0003L6.5256 17.2275C7.746 17.8975 9.13195 18.2515 10.5336 18.2515C12.1892 18.2515 13.7892 17.7675 15.1609 16.8518C15.3403 16.7322 15.3887 16.4896 15.2689 16.3101C15.1491 16.1307 14.9066 16.0823 14.7272 16.2021C13.4844 17.0317 12.0343 17.4702 10.5336 17.4702C9.26303 17.4702 8.00707 17.1495 6.90158 16.5427L6.34982 16.2396C6.26132 16.1911 6.1574 16.1787 6.0599 16.205L3.75765 16.8272L4.38082 14.6036C4.40936 14.5013 4.39532 14.3919 4.34161 14.3005L4.0053 13.7276C3.32827 12.5739 2.97045 11.2527 2.97045 9.90692C2.97045 5.73654 6.3634 2.34375 10.5338 2.34375C14.7042 2.34375 18.0969 5.73654 18.0969 9.90707C18.0969 11.4075 17.6584 12.8575 16.8288 14.1005C16.709 14.2799 16.7574 14.5224 16.9368 14.6422Z" fill="#1B2536"/>
<path d="M9.10616 8.70712L9.13195 8.67706C9.48184 8.2843 9.39349 7.82303 9.25768 7.50534C9.05703 7.03613 8.53213 5.83679 8.48239 5.72327C8.40487 5.52734 8.14623 5.21698 7.62606 5.20615C7.22048 5.19791 7.08712 5.20935 7.05599 5.21317C7.05279 5.21347 7.04959 5.21393 7.04653 5.21439C6.98672 5.22308 5.57986 5.45074 5.33694 7.55936C5.22524 8.52875 5.67416 9.68353 6.67117 10.992C7.77499 12.4405 8.7897 13.3031 10.2902 14.0681C11.0375 14.4492 12.1289 14.8952 13.145 14.8952C13.178 14.8952 13.2109 14.8947 13.2436 14.8936C14.3848 14.8604 14.9942 14.3861 15.3044 13.9941C15.6337 13.578 15.7025 13.168 15.7125 13.0969C15.719 13.0518 15.7349 12.9092 15.745 12.538C15.759 12.0178 15.4611 11.7447 15.2692 11.6579C15.1607 11.604 14.0422 11.0495 13.5837 10.8272C13.2741 10.6769 12.8189 10.5911 12.4092 11.0356C12.4071 11.0379 12.4051 11.0402 12.4031 11.0422C12.3477 11.0905 12.293 11.1627 12.1265 11.3855C12.024 11.5227 11.8193 11.7964 11.7324 11.8878C11.5486 11.9008 10.9343 11.6302 10.0635 10.956C9.51464 10.5309 8.92855 9.86908 8.6043 9.30847C8.6011 9.30054 8.59912 9.28604 8.60003 9.27872C8.73446 9.14047 8.95327 8.88641 9.10616 8.70712ZM9.58514 11.5736C9.84545 11.7752 10.3559 12.1507 10.8493 12.4011C11.0826 12.5194 11.7926 12.8796 12.2304 12.4922C12.3513 12.3853 12.5229 12.1599 12.7521 11.8532C12.8182 11.7648 12.8993 11.6563 12.9308 11.6188C12.9512 11.6002 12.9682 11.5819 12.9836 11.5651C13.0539 11.4888 13.086 11.454 13.2427 11.53C13.7133 11.7583 14.8873 12.3405 14.9294 12.3613C14.9439 12.3758 14.9665 12.4229 14.9639 12.5168C14.9552 12.8406 14.9425 12.9576 14.9399 12.9796C14.9382 12.9877 14.939 12.9828 14.9381 12.9916C14.9335 13.0182 14.8844 13.28 14.6691 13.5371C14.3654 13.9 13.8782 14.0936 13.2208 14.1127C12.3419 14.1388 11.3353 13.7242 10.645 13.3722C9.24059 12.6559 8.33193 11.8825 7.29235 10.5183C6.4342 9.39224 6.02633 8.39981 6.11285 7.64862C6.27581 6.23428 7.05096 6.01212 7.15487 5.98862C7.19149 5.98633 7.31539 5.98114 7.60989 5.98724C7.70373 5.98923 7.74966 6.0141 7.76354 6.02921C7.78292 6.07346 8.33361 7.33139 8.53915 7.81235C8.64184 8.05267 8.57882 8.12347 8.54846 8.1575C8.54296 8.1636 8.53823 8.1691 8.53411 8.17368L8.51168 8.20007C8.28601 8.46451 8.12716 8.64441 8.03958 8.73428C7.75118 9.03061 7.7785 9.44077 7.9262 9.6965C8.30187 10.3474 8.95312 11.0841 9.58514 11.5736Z" fill="#1B2536"/>
<path d="M3.80465 3.56842C3.89849 3.56842 3.99264 3.53485 4.06741 3.4668C4.22701 3.32169 4.23892 3.07465 4.09381 2.91504C3.94854 2.75543 3.70165 2.74368 3.54189 2.88879L3.54174 2.88895C3.38214 3.03406 3.37054 3.28094 3.51565 3.4407C3.59271 3.52539 3.69845 3.56842 3.80465 3.56842Z" fill="#1B2536"/>
<path d="M15.869 15.2684L15.8689 15.2687C15.7238 15.4283 15.7357 15.6752 15.8953 15.8203C15.97 15.8884 16.064 15.9219 16.1579 15.9219C16.2641 15.9219 16.37 15.8788 16.447 15.7939C16.5923 15.6343 16.5804 15.3873 16.4208 15.2422C16.2612 15.097 16.0141 15.1088 15.869 15.2684Z" fill="#1B2536"/>
</svg>
